<svg height="64" viewBox="0 0 32 32" width="64" xmlns="http://www.w3.org/2000/svg" xmlns:xlink="http://www.w3.org/1999/xlink"><clipPath id="a"><path d="m0 216h216v-216h-216z"/></clipPath><clipPath id="b"><path d="m121.724 55.661c.343 1.114.39 2.832-3.038 2.054s-9.395-1.342-9.843-12.303l-.214-20.989h-2.258l-.213 20.989c-.448 10.961-9.842 12.303-9.842 12.303-3.428.778-3.383-.938-3.04-2.052-3.371 5.738-12.394 4.996-12.394 4.996-3.133-1.117-.224-3.131-.224-3.131 4.921-1.788 5.369-7.158 5.369-7.158v-15.18l.52-11.728c1.117-5.224 3.874-8.312 6.578-10.129l28.803.033c3.484 2.365 7.047 6.846 7.047 15.307v21.697s.447 5.37 5.369 7.158 2.906 2.014-.225 3.131-.382.031-1.017.032c-2.455 0-8.7-.469-11.378-5.03m-27.197-21.619v16.552c0 1.617-.285 2.977-.773 4.12 3.239-2.526 3.457-8.855 3.457-8.855v-20.663c-3.225 2.282-2.684 8.846-2.684 8.846m23.264 11.817s.217 6.329 3.456 8.855c-.487-1.143-.772-2.503-.772-4.12v-16.552s.539-6.101-2.684-8.612z"/></clipPath><clipPath id="c"><path d="m0 216h216v-216h-216z"/></clipPath><g transform="matrix(.17842307 0 0 -.17792261 -3.18057 36.6506)"><g clip-path="url(#c)"><path d="m0 0c0-9.73-22.538-17.617-50.339-17.617-27.803 0-50.34 7.887-50.34 17.617s22.537 17.619 50.34 17.619c27.801 0 50.339-7.889 50.339-17.619" fill="#a0dcf2" transform="translate(158.542 54.9961)"/></g><g clip-path="url(#b)"><path d="m0 0c0-9.73-22.538-17.617-50.339-17.617-27.803 0-50.34 7.887-50.34 17.617s22.537 17.619 50.34 17.619c27.801 0 50.339-7.889 50.339-17.619" fill="#82bde7" transform="translate(158.542 54.9961)"/></g><g clip-path="url(#a)"><path d="m0 0-1.453-5.063s-.378-1.83 1.346-2.154c1.8.035 1.653 1.719 1.527 2.266z" fill="#a0dcf2" transform="translate(50.6987 106.8008)"/><path d="m0 0 .133.658c-14.768 2.953-29.922 2.983-39.09 2.602 1.506 5.426 1.959 11.67 1.959 18.633 0 9.986-3.752 17.975-9.843 24.054 1.065 3.435 2.487 11.066-1.42 20.833 0 0-6.89 2.188-22.476-8.243-6.106 1.526-12.604 2.279-19.112 2.279-7.16 0-14.395-.912-21.143-2.763-16.086 10.975-23.186 8.727-23.186 8.727-4.636-11.59-1.77-20.171-.899-22.302-5.448-5.879-8.774-13.384-8.774-22.585 0-6.947.792-13.178 2.724-18.594-9.247.336-23.849.207-38.089-2.641l.132-.658c14.325 2.865 29.018 2.965 38.209 2.617.425-1.121.899-2.209 1.43-3.26-9.088-.293-24.604-1.451-39.475-5.646l.182-.645c14.988 4.227 30.641 5.356 39.641 5.631 5.43-10.121 16.135-16.658 35.18-18.711-2.704-1.816-5.46-4.904-6.579-10.129-3.683-1.761-15.343-6.062-22.339 5.971 0 0-3.916 7.16-11.412 7.721 0 0-7.271.111-.503-4.531 0 0 4.867-2.293 8.223-10.909 0 0 4.379-14.695 25.512-9.98v-15.18s-.447-5.369-5.369-7.158c0 0-2.908-2.014.224-3.131 0 0 13.645-1.119 13.645 10.065v16.552s-.54 6.565 2.683 8.846v-27.187s-.222-6.487-3.578-8.948c0 0-2.237-4.025 2.684-2.908 0 0 9.394 1.342 9.842 12.303l.214 27.513h2.257l.215-27.513c.447-10.961 9.842-12.303 9.842-12.303 4.919-1.117 2.683 2.908 2.683 2.908-3.355 2.461-3.578 8.948-3.578 8.948v26.953c3.223-2.51 2.684-8.612 2.684-8.612v-16.552c0-11.184 13.644-10.065 13.644-10.065 3.131 1.117.225 3.131.225 3.131-4.922 1.789-5.369 7.158-5.369 7.158v21.697c0 8.461-3.563 12.942-7.047 15.307 20.31 2.014 30.056 8.572 34.548 18.762 8.896-.244 24.906-1.328 40.22-5.649l.182.645c-15.227 4.295-31.131 5.406-40.117 5.668.426 1.029.797 2.1 1.127 3.201 9.105.389 24.328.385 39.154-2.58" fill="#292929" transform="translate(197.042 128.0273)"/><path d="m0 0c4.375-3.963 6.934-8.749 6.934-13.905 0-24.075-17.948-24.728-40.085-24.728-22.14 0-40.086 3.334-40.086 24.728 0 5.122 2.524 9.878 6.845 13.825 7.206 6.578 19.404 3.095 33.241 3.095 13.782 0 25.934 3.518 33.151-3.015" fill="#f5cdb5" transform="translate(140.1777 150.3906)"/><path d="m0 0c0-6.631-3.734-12.006-8.34-12.006s-8.342 5.375-8.342 12.006 3.736 12.004 8.342 12.004 8.34-5.373 8.34-12.004" fill="#fff" transform="translate(93.6968 135.2578)"/><path d="m0 0c0-4.42-2.491-8.002-5.561-8.002-3.072 0-5.56 3.582-5.56 8.002 0 4.422 2.488 8.006 5.56 8.006 3.07 0 5.561-3.584 5.561-8.006" fill="#b1645a" transform="translate(91.021 135.1074)"/><path d="m0 0c0-6.631-3.734-12.006-8.342-12.006-4.605 0-8.34 5.375-8.34 12.006s3.735 12.004 8.34 12.004c4.608 0 8.342-5.373 8.342-12.004" fill="#fff" transform="translate(138.4434 135.2578)"/><path d="m0 0c0-4.42-2.49-8.002-5.561-8.002-3.07 0-5.56 3.582-5.56 8.002 0 4.422 2.49 8.006 5.56 8.006 3.071 0 5.561-3.584 5.561-8.006" fill="#b1645a" transform="translate(135.7656 135.1074)"/><path d="m0 0c0-1.152-.934-2.086-2.086-2.086-1.153 0-2.086.934-2.086 2.086s.933 2.086 2.086 2.086c1.152 0 2.086-.934 2.086-2.086" fill="#b1645a" transform="translate(109.2305 124.5957)"/><path d="m0 0c-.123.35.061.732.409.855.349.124.733-.06.856-.408.536-1.515 1.973-2.533 3.577-2.533s3.041 1.018 3.578 2.533c.123.35.506.532.856.408.349-.123.531-.505.408-.855-.725-2.049-2.672-3.426-4.842-3.426s-4.115 1.377-4.842 3.426" fill="#b1645a" transform="translate(102.2847 119.3223)"/><g fill="#c5e6da"><path d="m0 0c0-.557-.652-1.006-1.455-1.006s-1.454.449-1.454 1.006.651 1.008 1.454 1.008 1.455-.451 1.455-1.008" transform="translate(56.0405 109.7852)"/><path d="m0 0c0-.557-.652-1.008-1.455-1.008s-1.454.451-1.454 1.008c0 .555.651 1.006 1.454 1.006s1.455-.451 1.455-1.006" transform="translate(60.0679 107.5488)"/><path d="m0 0c0-.555-.651-1.006-1.455-1.006-.803 0-1.453.451-1.453 1.006 0 .557.65 1.008 1.453 1.008.804 0 1.455-.451 1.455-1.008" transform="translate(62.5288 104.6387)"/><path d="m0 0c0-.557-.65-1.008-1.453-1.008-.804 0-1.455.451-1.455 1.008s.651 1.008 1.455 1.008c.803 0 1.453-.451 1.453-1.008" transform="translate(64.7651 101.2832)"/><path d="m0 0c0-.555-.651-1.006-1.454-1.006s-1.455.451-1.455 1.006c0 .557.652 1.008 1.455 1.008s1.454-.451 1.454-1.008" transform="translate(67.2271 98.1504)"/><path d="m0 0c0-.557-.651-1.008-1.455-1.008-.803 0-1.453.451-1.453 1.008 0 .555.65 1.006 1.453 1.006.804 0 1.455-.451 1.455-1.006" transform="translate(70.5835 95.4668)"/><path d="m0 0c0-.555-.651-1.006-1.454-1.006-.804 0-1.455.451-1.455 1.006 0 .557.651 1.008 1.455 1.008.803 0 1.454-.451 1.454-1.008" transform="translate(75.2817 93.6758)"/><path d="m0 0c0-.555-.651-1.006-1.454-1.006-.804 0-1.455.451-1.455 1.006 0 .557.651 1.008 1.455 1.008.803 0 1.454-.451 1.454-1.008" transform="translate(79.9575 93.6758)"/><path d="m0 0c0-.557-.651-1.008-1.454-1.008-.804 0-1.455.451-1.455 1.008s.651 1.008 1.455 1.008c.803 0 1.454-.451 1.454-1.008" transform="translate(84.7036 94.4551)"/></g></g></g></svg>