
<svg width="267px" height="199px" viewBox="0 0 267 199" version="1.1" xmlns="http://www.w3.org/2000/svg" xmlns:xlink="http://www.w3.org/1999/xlink">
    <g id="Page-2" stroke="none" stroke-width="1" fill="none" fill-rule="evenodd">
        <g id="Desktop" transform="translate(-827.000000, -47.000000)">
            <g id="Group-2" transform="translate(827.000000, 47.000000)">
                <g id="ampproject-official" transform="translate(162.000000, 77.000000)" fill="#0379C4">
                    <path d="M70.5005006,47.6927494 L48.4767506,84.3447506 L44.4867506,84.3447506 L48.43125,60.4625006 L36.2145,60.4782506 C36.2145,60.4782506 36.099,60.481807 36.0447506,60.481807 C34.944,60.481807 34.0532494,59.5910581 34.0532494,58.4903076 C34.0532494,58.0178076 34.4925,57.2180581 34.4925,57.2180581 L56.4444994,20.6098081 L60.501,20.6273025 L56.4567506,44.5463025 L68.7365006,44.5305525 C68.7365006,44.5305525 68.8677506,44.528859 68.9307506,44.528859 C70.0314994,44.528859 70.92225,45.4196078 70.92225,46.5203584 C70.92225,46.9666084 70.7472506,47.358609 70.4987494,47.6911084 L70.500443,47.6928019 L70.5005006,47.6927494 Z M52.5,0 C23.50425,0 0,23.5059994 0,52.5 C0,81.49575 23.50425,105 52.5,105 C81.4940006,105 105,81.49575 105,52.5 C105,23.5059994 81.4940006,0 52.5,0 Z" id="Shape"></path>
                </g>
                <polygon id="Rectangle" fill="#D62F30" points="0 188.769489 130.560193 94 138 104.230511 7.43980651 199"></polygon>
                <polygon id="Rectangle-Copy" fill="#0379C4" points="129 94.7694893 259.560193 0 267 10.2305107 136.439807 105"></polygon>
                <g id="web" transform="translate(0.000000, 13.000000)" fill-rule="nonzero">
                    <path d="M12.1917808,13.40625 L78.0273973,13.40625 L78.0273973,7.3125 C78.0273973,4.85675049 74.5593791,1.21875 70.2820306,1.21875 L19.9371475,1.21875 C15.659799,1.21875 12.1917808,4.85675049 12.1917808,9.34375 L12.1917808,13.40625 Z" id="Path" fill="#9BC9FF"></path>
                    <polygon id="Path" fill="#9BC9FF" points="2.43835616 41.4375 86.5616438 41.4375 86.5616438 29.25 2.43835616 29.25"></polygon>
                    <polygon id="Path" fill="#9BC9FF" points="2.43835616 87.75 71.2665006 87.75 71.2665006 72.3125 86.5616438 72.3125 86.5616438 41.4375 2.43835616 41.4375"></polygon>
                    <path d="M12.1917808,102.375 L12.1917808,106.4375 C12.1917808,110.9245 15.659799,114.5625 19.9371475,114.5625 L70.2820306,114.5625 C74.5593791,114.5625 78.0273973,110.9245 78.0273973,108.46875 L78.0273973,102.375 L12.1917808,102.375 Z" id="Path" fill="#9BC9FF"></path>
                    <g id="Group" fill="#1E81CE">
                        <path d="M13.5434783,15.6 L75.4565217,15.6 L75.4565217,25.35 L79.326087,25.35 L79.326087,7.8 C79.326087,4.29038074 74.8604046,0 69.6521739,0 L19.3478261,0 C14.0073349,0.00666505125 9.68052613,4.36750494 9.67391304,9.75 L9.67391304,25.35 L13.5434783,25.35 L13.5434783,15.6 Z M19.3478261,3.9 L69.6521739,3.9 C73.0049783,3.9 75.4565217,6.62980963 75.4565217,7.8 L75.4565217,11.7 L13.5434783,11.7 L13.5434783,9.75 C13.5434783,6.51936041 16.1423977,3.9 19.3478261,3.9 Z" id="Shape"></path>
                        <path d="M75.4565217,101.4 L50.3043478,101.4 L50.3043478,105.3 L75.4565217,105.3 L75.4565217,107.25 C75.4565217,110.48064 72.8576023,113.1 69.6521739,113.1 L19.3478261,113.1 C16.1423977,113.1 13.5434783,110.48064 13.5434783,107.25 L13.5434783,105.3 L38.6956522,105.3 L38.6956522,101.4 L13.5434783,101.4 L13.5434783,91.65 L9.67391304,91.65 L9.67391304,107.25 C9.68052613,112.632495 14.0073349,116.993335 19.3478261,117 L69.6521739,117 C74.9926651,116.993335 79.3194739,112.632495 79.326087,107.25 L79.326087,91.65 L75.4565217,91.65 L75.4565217,101.4 Z" id="Path"></path>
                        <polygon id="Path" points="42.5652174 101.4 46.4347826 101.4 46.4347826 105.3 42.5652174 105.3"></polygon>
                        <polygon id="Path" points="42.5652174 5.85 46.4347826 5.85 46.4347826 9.75 42.5652174 9.75"></polygon>
                        <polygon id="Path" points="7.73913043 33.15 11.6086957 33.15 11.6086957 37.05 7.73913043 37.05"></polygon>
                        <polygon id="Path" points="15.4782609 33.15 19.3478261 33.15 19.3478261 37.05 15.4782609 37.05"></polygon>
                        <polygon id="Path" points="23.2173913 33.15 27.0869565 33.15 27.0869565 37.05 23.2173913 37.05"></polygon>
                        <path d="M88.9763821,72.2690185 C88.9763821,72.228076 89,72.1909424 89,72.15 L89,29.25 C89,28.1731201 88.1336936,27.3 87.0652174,27.3 L1.93478261,27.3 C0.86630641,27.3 0,28.1731201 0,29.25 L0,87.75 C0,88.8268799 0.86630641,89.7 1.93478261,89.7 L71.5869565,89.7 C72.0999385,89.6990479 72.5911919,89.4933838 72.9549083,89.1287109 L88.4331692,73.5287109 C88.594716,73.363037 88.7260319,73.169751 88.8205034,72.9574219 C88.8469558,72.8964844 88.8630159,72.8384034 88.8837996,72.7755615 C88.9367038,72.6117919 88.9678797,72.4413573 88.9763821,72.2690185 Z M85.1304348,31.2 L85.1304348,39 L3.86956522,39 L3.86956522,31.2 L85.1304348,31.2 Z M3.86956522,42.9 L85.1304348,42.9 L85.1304348,70.2 L71.5869565,70.2 C70.5184803,70.2 69.6521739,71.0731201 69.6521739,72.15 L69.6521739,85.8 L3.86956522,85.8 L3.86956522,42.9 Z M73.5217391,83.0425781 L73.5217391,74.1 L82.3945313,74.1 L73.5217391,83.0425781 Z" id="Shape"></path>
                        <path d="M17.4130435,50.7 L9.67391304,50.7 C8.60543685,50.7 7.73913043,51.5731201 7.73913043,52.65 C7.73913043,53.7268799 8.60543685,54.6 9.67391304,54.6 L17.4130435,54.6 C18.4815197,54.6 19.3478261,53.7268799 19.3478261,52.65 C19.3478261,51.5731201 18.4815197,50.7 17.4130435,50.7 Z" id="Path"></path>
                        <path d="M25.1521739,54.6 L63.8478261,54.6 C64.9163023,54.6 65.7826087,53.7268799 65.7826087,52.65 C65.7826087,51.5731201 64.9163023,50.7 63.8478261,50.7 L25.1521739,50.7 C24.0836977,50.7 23.2173913,51.5731201 23.2173913,52.65 C23.2173913,53.7268799 24.0836977,54.6 25.1521739,54.6 Z" id="Path"></path>
                        <path d="M17.4130435,58.5 L9.67391304,58.5 C8.60543685,58.5 7.73913043,59.3731201 7.73913043,60.45 C7.73913043,61.5268799 8.60543685,62.4 9.67391304,62.4 L17.4130435,62.4 C18.4815197,62.4 19.3478261,61.5268799 19.3478261,60.45 C19.3478261,59.3731201 18.4815197,58.5 17.4130435,58.5 Z" id="Path"></path>
                        <path d="M63.8478261,58.5 L25.1521739,58.5 C24.0836977,58.5 23.2173913,59.3731201 23.2173913,60.45 C23.2173913,61.5268799 24.0836977,62.4 25.1521739,62.4 L63.8478261,62.4 C64.9163023,62.4 65.7826087,61.5268799 65.7826087,60.45 C65.7826087,59.3731201 64.9163023,58.5 63.8478261,58.5 Z" id="Path"></path>
                        <path d="M17.4130435,66.3 L9.67391304,66.3 C8.60543685,66.3 7.73913043,67.1731201 7.73913043,68.25 C7.73913043,69.3268799 8.60543685,70.2 9.67391304,70.2 L17.4130435,70.2 C18.4815197,70.2 19.3478261,69.3268799 19.3478261,68.25 C19.3478261,67.1731201 18.4815197,66.3 17.4130435,66.3 Z" id="Path"></path>
                        <path d="M63.8478261,66.3 L25.1521739,66.3 C24.0836977,66.3 23.2173913,67.1731201 23.2173913,68.25 C23.2173913,69.3268799 24.0836977,70.2 25.1521739,70.2 L63.8478261,70.2 C64.9163023,70.2 65.7826087,69.3268799 65.7826087,68.25 C65.7826087,67.1731201 64.9163023,66.3 63.8478261,66.3 Z" id="Path"></path>
                        <path d="M17.4130435,74.1 L9.67391304,74.1 C8.60543685,74.1 7.73913043,74.9731201 7.73913043,76.05 C7.73913043,77.1268799 8.60543685,78 9.67391304,78 L17.4130435,78 C18.4815197,78 19.3478261,77.1268799 19.3478261,76.05 C19.3478261,74.9731201 18.4815197,74.1 17.4130435,74.1 Z" id="Path"></path>
                        <path d="M63.8478261,74.1 L25.1521739,74.1 C24.0836977,74.1 23.2173913,74.9731201 23.2173913,76.05 C23.2173913,77.1268799 24.0836977,78 25.1521739,78 L63.8478261,78 C64.9163023,78 65.7826087,77.1268799 65.7826087,76.05 C65.7826087,74.9731201 64.9163023,74.1 63.8478261,74.1 Z" id="Path"></path>
                    </g>
                </g>
            </g>
        </g>
    </g>
</svg>