
<svg xmlns="http://www.w3.org/2000/svg" xmlns:xlink="http://www.w3.org/1999/xlink" xmlns:fi="http://pattern.flaticon.com/" x="0" y="0" width="700" height="350" viewBox="0 0 700 350"><rect x="0px" y="0px" width="100%" height="100%" opacity="1" fill="#ffffff"/><defs><g transform="matrix(0.09369506788103724 0.09369506788103722 -0.09369506788103722 0.09369506788103724 349.9999996647239 302.12181997751384)" id="L1_87"><path d="M359.5,0h-208C129.72,0,112,17.72,112,39.5v432c0,21.78,17.72,39.5,39.5,39.5h208c21.78,0,39.5-17.72,39.5-39.5v-432   C399,17.72,381.28,0,359.5,0z M127,79h257v49H127V79z M127,143h257v289H127V143z M151.5,15h208c13.509,0,24.5,10.991,24.5,24.5V64   H127V39.5C127,25.991,137.991,15,151.5,15z M359.5,496h-208c-13.509,0-24.5-10.991-24.5-24.5V447h257v24.5   C384,485.009,373.009,496,359.5,496z" fill="#f5f5f5"/><path d="M231.5,47h48c4.142,0,7.5-3.358,7.5-7.5s-3.358-7.5-7.5-7.5h-48c-4.142,0-7.5,3.358-7.5,7.5S227.358,47,231.5,47z" fill="#f5f5f5"/><path d="M271.5,464h-32c-4.142,0-7.5,3.358-7.5,7.5s3.358,7.5,7.5,7.5h32c4.142,0,7.5-3.358,7.5-7.5S275.642,464,271.5,464z" fill="#f5f5f5"/><path d="M199.5,47c1.97,0,3.91-0.8,5.3-2.2c1.4-1.39,2.2-3.33,2.2-5.3c0-1.97-0.8-3.91-2.2-5.3c-1.39-1.4-3.33-2.2-5.3-2.2   c-1.97,0-3.91,0.8-5.3,2.2c-1.4,1.39-2.2,3.33-2.2,5.3c0,1.97,0.8,3.91,2.2,5.3C195.59,46.2,197.53,47,199.5,47z" fill="#f5f5f5"/><path d="M170.197,308.803c1.464,1.464,3.384,2.197,5.303,2.197s3.839-0.732,5.303-2.197l56-56c2.929-2.929,2.929-7.678,0-10.606   l-56-56c-2.929-2.929-7.678-2.929-10.606,0c-2.929,2.929-2.929,7.678,0,10.606l50.697,50.697l-50.697,50.697   C167.268,301.125,167.268,305.875,170.197,308.803z" fill="#f5f5f5"/><path d="M247.5,311h80c4.142,0,7.5-3.358,7.5-7.5s-3.358-7.5-7.5-7.5h-80c-4.142,0-7.5,3.358-7.5,7.5S243.358,311,247.5,311z" fill="#f5f5f5"/><path d="M191.5,352h-32c-8.547,0-15.5,6.953-15.5,15.5v32c0,8.547,6.953,15.5,15.5,15.5h32c8.547,0,15.5-6.953,15.5-15.5v-32   C207,358.953,200.047,352,191.5,352z M192,399.5c0,0.276-0.224,0.5-0.5,0.5h-32c-0.276,0-0.5-0.224-0.5-0.5v-32   c0-0.276,0.224-0.5,0.5-0.5h32c0.276,0,0.5,0.224,0.5,0.5V399.5z" fill="#f5f5f5"/><path d="M271.5,352h-32c-8.547,0-15.5,6.953-15.5,15.5v32c0,8.547,6.953,15.5,15.5,15.5h32c8.547,0,15.5-6.953,15.5-15.5v-32   C287,358.953,280.047,352,271.5,352z M272,399.5c0,0.276-0.224,0.5-0.5,0.5h-32c-0.276,0-0.5-0.224-0.5-0.5v-32   c0-0.276,0.224-0.5,0.5-0.5h32c0.276,0,0.5,0.224,0.5,0.5V399.5z" fill="#f5f5f5"/><path d="M351.5,352h-32c-8.547,0-15.5,6.953-15.5,15.5v32c0,8.547,6.953,15.5,15.5,15.5h32c8.547,0,15.5-6.953,15.5-15.5v-32   C367,358.953,360.047,352,351.5,352z M352,399.5c0,0.276-0.224,0.5-0.5,0.5h-32c-0.276,0-0.5-0.224-0.5-0.5v-32   c0-0.276,0.224-0.5,0.5-0.5h32c0.276,0,0.5,0.224,0.5,0.5V399.5z" fill="#f5f5f5"/><path d="M159.5,96h-8c-4.142,0-7.5,3.358-7.5,7.5s3.358,7.5,7.5,7.5h8c4.142,0,7.5-3.358,7.5-7.5S163.642,96,159.5,96z" fill="#f5f5f5"/><path d="M359.5,96h-8c-4.142,0-7.5,3.358-7.5,7.5s3.358,7.5,7.5,7.5h8c4.142,0,7.5-3.358,7.5-7.5S363.642,96,359.5,96z" fill="#f5f5f5"/><path d="M318.5,96h-127c-4.142,0-7.5,3.358-7.5,7.5s3.358,7.5,7.5,7.5h127c4.142,0,7.5-3.358,7.5-7.5S322.642,96,318.5,96z" fill="#f5f5f5"/></g><g transform="matrix(0.09563142458601719 0.027763963460592376 -0.027763963460592376 0.09563142458601719 75.15986360794815 -20.527521720414548)" id="L1_88"><path d="M39.5,103c1.97,0,3.91-0.8,5.3-2.2c1.4-1.39,2.2-3.33,2.2-5.3s-0.8-3.91-2.2-5.3c-1.39-1.4-3.33-2.2-5.3-2.2   c-1.98,0-3.91,0.8-5.3,2.2c-1.4,1.39-2.2,3.33-2.2,5.3s0.8,3.91,2.2,5.3C35.59,102.2,37.53,103,39.5,103z" fill="#f5f5f5"/><path d="M63.5,103c1.98,0,3.91-0.8,5.3-2.2c1.4-1.39,2.2-3.33,2.2-5.3s-0.8-3.91-2.2-5.3c-1.39-1.4-3.32-2.2-5.3-2.2   c-1.97,0-3.91,0.8-5.3,2.2c-1.4,1.39-2.2,3.33-2.2,5.3s0.8,3.91,2.2,5.3C59.59,102.2,61.53,103,63.5,103z" fill="#f5f5f5"/><path d="M87.5,103c1.97,0,3.91-0.8,5.3-2.2c1.4-1.39,2.2-3.33,2.2-5.3s-0.8-3.91-2.2-5.3c-1.39-1.4-3.33-2.2-5.3-2.2   c-1.97,0-3.91,0.8-5.3,2.2c-1.4,1.39-2.2,3.33-2.2,5.3s0.8,3.91,2.2,5.3C83.59,102.2,85.53,103,87.5,103z" fill="#f5f5f5"/><path d="M220.803,210.197c-2.929-2.929-7.678-2.929-10.606,0l-72,72c-2.929,2.929-2.929,7.677,0,10.606l72,72   c1.464,1.464,3.384,2.197,5.303,2.197s3.839-0.732,5.303-2.197c2.929-2.929,2.929-7.677,0-10.606L154.106,287.5l66.697-66.697   C223.732,217.874,223.732,213.126,220.803,210.197z" fill="#f5f5f5"/><path d="M295.5,352c-1.97,0-3.91,0.8-5.3,2.2c-1.4,1.39-2.2,3.33-2.2,5.3s0.8,3.91,2.2,5.3c1.39,1.4,3.33,2.2,5.3,2.2   c1.97,0,3.91-0.8,5.3-2.2c1.4-1.39,2.2-3.33,2.2-5.3s-0.8-3.91-2.2-5.3C299.41,352.8,297.47,352,295.5,352z" fill="#f5f5f5"/><path d="M295.5,208c-30.603,0-55.5,24.897-55.5,55.5c0,4.142,3.358,7.5,7.5,7.5s7.5-3.358,7.5-7.5c0-22.332,18.168-40.5,40.5-40.5   s40.5,18.168,40.5,40.5S317.832,304,295.5,304c-4.142,0-7.5,3.358-7.5,7.5v16c0,4.142,3.358,7.5,7.5,7.5s7.5-3.358,7.5-7.5v-9.005   c27.07-3.671,48-26.935,48-54.995C351,232.897,326.103,208,295.5,208z" fill="#f5f5f5"/><path d="M119.5,103h304c4.142,0,7.5-3.358,7.5-7.5s-3.358-7.5-7.5-7.5h-304c-4.142,0-7.5,3.358-7.5,7.5S115.358,103,119.5,103z" fill="#f5f5f5"/><path d="M455.5,103h16c4.142,0,7.5-3.358,7.5-7.5s-3.358-7.5-7.5-7.5h-16c-4.142,0-7.5,3.358-7.5,7.5S451.358,103,455.5,103z" fill="#f5f5f5"/><path d="M471.5,56h-432C17.72,56,0,73.72,0,95.5v320C0,437.28,17.72,455,39.5,455h432c21.78,0,39.5-17.72,39.5-39.5v-320   C511,73.72,493.28,56,471.5,56z M39.5,71h432c13.509,0,24.5,10.991,24.5,24.5V120H15V95.5C15,81.991,25.991,71,39.5,71z M471.5,440   h-432C25.991,440,15,429.009,15,415.5V135h481v280.5C496,429.009,485.009,440,471.5,440z" fill="#f5f5f5"/></g><g transform="matrix(0.11194278799479067 -0.035350353318732285 0.035350353318732285 0.11194278799479067 141.36660224538326 311.43063279125545)" id="L1_89"><path d="M39.5,103c1.97,0,3.91-0.8,5.3-2.2c1.4-1.39,2.2-3.33,2.2-5.3s-0.8-3.91-2.2-5.3c-1.39-1.4-3.33-2.2-5.3-2.2   c-1.97,0-3.91,0.8-5.3,2.2c-1.4,1.39-2.2,3.33-2.2,5.3s0.8,3.91,2.2,5.3C35.59,102.2,37.53,103,39.5,103z" fill="#f5f5f5"/><path d="M63.5,103c1.97,0,3.91-0.8,5.3-2.2c1.4-1.39,2.2-3.33,2.2-5.3s-0.8-3.91-2.2-5.3c-1.39-1.4-3.33-2.2-5.3-2.2   c-1.97,0-3.91,0.8-5.3,2.2c-1.4,1.39-2.2,3.33-2.2,5.3s0.8,3.91,2.2,5.3C59.59,102.2,61.53,103,63.5,103z" fill="#f5f5f5"/><path d="M87.5,103c1.97,0,3.91-0.8,5.3-2.2c1.4-1.39,2.2-3.33,2.2-5.3s-0.8-3.91-2.2-5.3c-1.39-1.4-3.33-2.2-5.3-2.2   c-1.97,0-3.91,0.8-5.3,2.2c-1.4,1.39-2.2,3.33-2.2,5.3c0,1.98,0.8,3.91,2.2,5.3C83.59,102.2,85.53,103,87.5,103z" fill="#f5f5f5"/><path d="M455.5,103h16c4.142,0,7.5-3.358,7.5-7.5s-3.358-7.5-7.5-7.5h-16c-4.142,0-7.5,3.358-7.5,7.5S451.358,103,455.5,103z" fill="#f5f5f5"/><path d="M439.5,312h-80c-12.958,0-23.5,10.542-23.5,23.5v56c0,12.958,10.542,23.5,23.5,23.5h80c12.958,0,23.5-10.542,23.5-23.5v-56   C463,322.542,452.458,312,439.5,312z M448,391.5c0,4.687-3.813,8.5-8.5,8.5h-80c-4.687,0-8.5-3.813-8.5-8.5v-56   c0-4.687,3.813-8.5,8.5-8.5h80c4.687,0,8.5,3.813,8.5,8.5V391.5z" fill="#f5f5f5"/><path d="M359.5,231c12.958,0,23.5-10.542,23.5-23.5S372.458,184,359.5,184S336,194.542,336,207.5S346.542,231,359.5,231z    M359.5,199c4.687,0,8.5,3.813,8.5,8.5s-3.813,8.5-8.5,8.5s-8.5-3.813-8.5-8.5S354.813,199,359.5,199z" fill="#f5f5f5"/><path d="M423.5,344h-48c-4.142,0-7.5,3.358-7.5,7.5s3.358,7.5,7.5,7.5h48c4.142,0,7.5-3.358,7.5-7.5S427.642,344,423.5,344z" fill="#f5f5f5"/><path d="M399.5,368h-24c-4.142,0-7.5,3.358-7.5,7.5s3.358,7.5,7.5,7.5h24c4.142,0,7.5-3.358,7.5-7.5S403.642,368,399.5,368z" fill="#f5f5f5"/><path d="M39.5,175h16c4.142,0,7.5-3.358,7.5-7.5s-3.358-7.5-7.5-7.5h-16c-4.142,0-7.5,3.358-7.5,7.5S35.358,175,39.5,175z" fill="#f5f5f5"/><path d="M39.5,215h16c4.142,0,7.5-3.358,7.5-7.5s-3.358-7.5-7.5-7.5h-16c-4.142,0-7.5,3.358-7.5,7.5S35.358,215,39.5,215z" fill="#f5f5f5"/><path d="M63.5,240h-8c-4.142,0-7.5,3.358-7.5,7.5s3.358,7.5,7.5,7.5h8c4.142,0,7.5-3.358,7.5-7.5S67.642,240,63.5,240z" fill="#f5f5f5"/><path d="M39.5,295h16c4.142,0,7.5-3.358,7.5-7.5s-3.358-7.5-7.5-7.5h-16c-4.142,0-7.5,3.358-7.5,7.5S35.358,295,39.5,295z" fill="#f5f5f5"/><path d="M87.5,175h32c4.142,0,7.5-3.358,7.5-7.5s-3.358-7.5-7.5-7.5h-32c-4.142,0-7.5,3.358-7.5,7.5S83.358,175,87.5,175z" fill="#f5f5f5"/><path d="M87.5,295h64c4.142,0,7.5-3.358,7.5-7.5s-3.358-7.5-7.5-7.5h-64c-4.142,0-7.5,3.358-7.5,7.5S83.358,295,87.5,295z" fill="#f5f5f5"/><path d="M87.5,215h80c4.142,0,7.5-3.358,7.5-7.5s-3.358-7.5-7.5-7.5h-80c-4.142,0-7.5,3.358-7.5,7.5S83.358,215,87.5,215z" fill="#f5f5f5"/><path d="M95.5,240c-4.142,0-7.5,3.358-7.5,7.5s3.358,7.5,7.5,7.5h32c4.142,0,7.5-3.358,7.5-7.5s-3.358-7.5-7.5-7.5H95.5z" fill="#f5f5f5"/><path d="M191,247.5c0-4.142-3.358-7.5-7.5-7.5h-24c-4.142,0-7.5,3.358-7.5,7.5s3.358,7.5,7.5,7.5h24   C187.642,255,191,251.642,191,247.5z" fill="#f5f5f5"/><path d="M215.5,240c-1.97,0-3.91,0.8-5.3,2.2c-1.4,1.39-2.2,3.33-2.2,5.3s0.8,3.91,2.2,5.3c1.39,1.4,3.33,2.2,5.3,2.2   c1.97,0,3.91-0.8,5.3-2.2c1.4-1.39,2.2-3.33,2.2-5.3s-0.8-3.91-2.2-5.3C219.41,240.8,217.47,240,215.5,240z" fill="#f5f5f5"/><path d="M194.2,322.2c-1.4,1.39-2.2,3.33-2.2,5.3s0.8,3.91,2.2,5.3c1.39,1.4,3.33,2.2,5.3,2.2c1.97,0,3.91-0.8,5.3-2.2   c1.4-1.39,2.2-3.33,2.2-5.3s-0.8-3.91-2.2-5.3c-1.39-1.4-3.32-2.2-5.3-2.2S195.59,320.8,194.2,322.2z" fill="#f5f5f5"/><path d="M63.5,320h-8c-4.142,0-7.5,3.358-7.5,7.5s3.358,7.5,7.5,7.5h8c4.142,0,7.5-3.358,7.5-7.5S67.642,320,63.5,320z" fill="#f5f5f5"/><path d="M175,327.5c0-4.142-3.358-7.5-7.5-7.5h-72c-4.142,0-7.5,3.358-7.5,7.5s3.358,7.5,7.5,7.5h72   C171.642,335,175,331.642,175,327.5z" fill="#f5f5f5"/><path d="M63.5,360h-8c-4.142,0-7.5,3.358-7.5,7.5s3.358,7.5,7.5,7.5h8c4.142,0,7.5-3.358,7.5-7.5S67.642,360,63.5,360z" fill="#f5f5f5"/><path d="M95.5,360c-4.142,0-7.5,3.358-7.5,7.5s3.358,7.5,7.5,7.5h48c4.142,0,7.5-3.358,7.5-7.5s-3.358-7.5-7.5-7.5H95.5z" fill="#f5f5f5"/><path d="M207,367.5c0-4.142-3.358-7.5-7.5-7.5h-24c-4.142,0-7.5,3.358-7.5,7.5s3.358,7.5,7.5,7.5h24   C203.642,375,207,371.642,207,367.5z" fill="#f5f5f5"/><path d="M55.5,400h-16c-4.142,0-7.5,3.358-7.5,7.5s3.358,7.5,7.5,7.5h16c4.142,0,7.5-3.358,7.5-7.5S59.642,400,55.5,400z" fill="#f5f5f5"/><path d="M111.5,400h-24c-4.142,0-7.5,3.358-7.5,7.5s3.358,7.5,7.5,7.5h24c4.142,0,7.5-3.358,7.5-7.5S115.642,400,111.5,400z" fill="#f5f5f5"/><path d="M223.5,400h-16c-4.142,0-7.5,3.358-7.5,7.5s3.358,7.5,7.5,7.5h16c4.142,0,7.5-3.358,7.5-7.5S227.642,400,223.5,400z" fill="#f5f5f5"/><path d="M151.5,175h64c4.142,0,7.5-3.358,7.5-7.5s-3.358-7.5-7.5-7.5h-64c-4.142,0-7.5,3.358-7.5,7.5S147.358,175,151.5,175z" fill="#f5f5f5"/><path d="M175.5,400h-32c-4.142,0-7.5,3.358-7.5,7.5s3.358,7.5,7.5,7.5h32c4.142,0,7.5-3.358,7.5-7.5S179.642,400,175.5,400z" fill="#f5f5f5"/><path d="M471.5,56H263V39.5c0-4.142-3.358-7.5-7.5-7.5s-7.5,3.358-7.5,7.5V56H39.5C17.72,56,0,73.72,0,95.5v320   C0,437.28,17.72,455,39.5,455H248v16.5c0,4.142,3.358,7.5,7.5,7.5s7.5-3.358,7.5-7.5V455h208.5c21.78,0,39.5-17.72,39.5-39.5v-320   C511,73.72,493.28,56,471.5,56z M471.5,71c13.509,0,24.5,10.991,24.5,24.5V120H263v-17h160.5c4.142,0,7.5-3.358,7.5-7.5   s-3.358-7.5-7.5-7.5H263V71H471.5z M39.5,71H248v17H119.5c-4.142,0-7.5,3.358-7.5,7.5s3.358,7.5,7.5,7.5H248v17H15V95.5   C15,81.991,25.991,71,39.5,71z M39.5,440C25.991,440,15,429.009,15,415.5V135h233v136.498c0,0.001,0,0.003,0,0.005V440H39.5z    M263,327h32.5c4.687,0,8.5,3.813,8.5,8.5v56c0,4.687-3.813,8.5-8.5,8.5H263V327z M263,274.606l48.5-48.5l42.697,42.697   c2.929,2.929,7.678,2.929,10.606,0L448,185.606V271.5c0,4.687-3.813,8.5-8.5,8.5H263V274.606z M359.5,252.894l-42.697-42.697   c-2.929-2.929-7.678-2.929-10.606,0L263,253.394V175h174.394L359.5,252.894z M471.5,440H263v-25h32.5   c12.958,0,23.5-10.542,23.5-23.5v-56c0-12.958-10.542-23.5-23.5-23.5H263v-17h176.5c12.958,0,23.5-10.542,23.5-23.5v-88   c0-12.958-10.542-23.5-23.5-23.5H263v-25h233v280.5C496,429.009,485.009,440,471.5,440z" fill="#f5f5f5"/></g><g transform="matrix(0.10649461817930048 0.032767576509724256 -0.032767576509724256 0.10649461817930048 243.84237351827386 316.6467043701159)" id="L1_90"><path d="M278.908,246.057l82.667-114.158c2.161-2.984,1.834-7.097-0.771-9.702c-2.605-2.606-6.718-2.933-9.702-0.771   l-114.158,82.667C216.351,205.416,200,222.58,200,243.5c0,21.78,17.72,39.5,39.5,39.5C260.42,283,277.585,266.649,278.908,246.057z    M274.904,226.011c-3.846-7.754-10.162-14.07-17.915-17.915l64.944-47.028L274.904,226.011z M215,243.5   c0-13.509,10.991-24.5,24.5-24.5s24.5,10.991,24.5,24.5S253.009,268,239.5,268S215,257.009,215,243.5z" fill="#f0f0f0"/><path d="M478.996,243.424c-0.002-3.423-0.071-6.855-0.216-10.297c-1.172-27.675-7.203-54.697-17.614-79.992   c-0.094-0.433-0.221-0.864-0.397-1.288c-0.192-0.464-0.428-0.898-0.697-1.301c-11.622-27.317-28.374-52.56-49.682-74.34   c-0.053-0.055-0.108-0.107-0.162-0.162c-0.349-0.683-0.805-1.326-1.377-1.897c-0.573-0.573-1.217-1.03-1.902-1.379   c-21.872-21.487-47.282-38.378-74.83-50.044c-0.308-0.183-0.626-0.354-0.967-0.495c-0.317-0.131-0.638-0.23-0.96-0.316   c-23.8-9.832-49.156-15.785-75.185-17.426c-5.086-0.32-10.151-0.465-15.199-0.474C239.705,4.011,239.604,4,239.5,4   c-0.107,0-0.212,0.012-0.318,0.016c-28.356,0.024-56.064,4.941-82.563,14.714C126.428,29.867,99.168,46.736,75.595,68.87   c-1.796,1.687-3.553,3.404-5.291,5.137c-0.051,0.049-0.106,0.091-0.156,0.141c-0.063,0.063-0.117,0.131-0.177,0.195   c-20.95,20.971-37.631,45.286-49.619,72.397C6.847,177.284,0,209.838,0,243.5c0,48.145,14.272,94.6,41.274,134.344   C48.573,388.586,60.778,395,73.921,395H87.5c4.142,0,7.5-3.358,7.5-7.5s-3.358-7.5-7.5-7.5H73.921   c-8.17,0-15.736-3.958-20.24-10.586c-7.179-10.567-13.396-21.642-18.621-33.114l22.534-9.334c3.827-1.585,5.644-5.973,4.059-9.799   c-1.585-3.827-5.973-5.644-9.799-4.059l-22.543,9.338C20.749,299.701,15.942,275.629,15.13,251H39.5c4.142,0,7.5-3.358,7.5-7.5   s-3.358-7.5-7.5-7.5H15.136c0.8-24.642,5.541-48.597,14.146-71.457l22.572,9.35c0.938,0.389,1.911,0.573,2.867,0.573   c2.943,0,5.736-1.744,6.932-4.632c1.585-3.827-0.232-8.214-4.059-9.799l-22.556-9.343c10.16-22.358,23.749-42.659,40.508-60.539   l17.229,17.229c1.464,1.464,3.384,2.197,5.303,2.197s3.839-0.732,5.303-2.197c2.929-2.929,2.929-7.678,0-10.606L86.149,79.542   c18.176-17.009,38.575-30.621,60.502-40.602l9.384,22.654c1.197,2.888,3.989,4.632,6.932,4.632c0.957,0,1.929-0.184,2.867-0.573   c3.827-1.585,5.644-5.973,4.059-9.799l-9.384-22.655c22.665-8.508,46.727-13.287,71.491-14.075V43.5c0,4.142,3.358,7.5,7.5,7.5   s7.5-3.358,7.5-7.5V19.133c2.351,0.077,4.704,0.178,7.064,0.327c22.176,1.398,43.836,6.136,64.354,13.917l-9.31,22.477   c-1.585,3.827,0.232,8.214,4.059,9.799c0.938,0.389,1.911,0.573,2.867,0.573c2.943,0,5.736-1.744,6.932-4.632l9.289-22.425   c21.952,10.066,42.347,23.734,60.35,40.619l-16.987,16.987c-2.929,2.929-2.929,7.678,0,10.606c1.464,1.464,3.384,2.197,5.303,2.197   s3.839-0.732,5.303-2.197l16.984-16.984c16.872,18.031,30.513,38.436,40.569,60.369l-22.372,9.267   c-3.827,1.585-5.644,5.973-4.059,9.799c1.197,2.888,3.989,4.632,6.932,4.632c0.957,0,1.929-0.184,2.867-0.573l22.424-9.289   c8.356,22.019,13.215,45.332,14.224,69.158c0.032,0.747,0.048,1.492,0.073,2.238H439.5c-4.142,0-7.5,3.358-7.5,7.5   s3.358,7.5,7.5,7.5h24.373c-0.802,24.664-5.584,48.709-14.158,71.456l-22.57-9.349c-3.826-1.584-8.214,0.232-9.799,4.059   c-1.585,3.827,0.232,8.214,4.059,9.799l22.544,9.338c-5.224,11.45-11.437,22.521-18.633,33.112   C420.814,376.043,413.248,380,405.079,380H391.5c-4.142,0-7.5,3.358-7.5,7.5s3.358,7.5,7.5,7.5h13.579   c13.144,0,25.347-6.413,32.646-17.154c27.098-39.884,41.265-86.095,41.271-134.246c0-0.034,0.005-0.066,0.005-0.1   C479,243.474,478.996,243.449,478.996,243.424z" fill="#f0f0f0"/><path d="M327.5,300h-176c-21.78,0-39.5,17.72-39.5,39.5v96c0,21.78,17.72,39.5,39.5,39.5h176c21.78,0,39.5-17.72,39.5-39.5v-96   C367,317.72,349.28,300,327.5,300z M352,435.5c0,13.509-10.991,24.5-24.5,24.5h-176c-13.509,0-24.5-10.991-24.5-24.5v-96   c0-13.509,10.991-24.5,24.5-24.5h176c13.509,0,24.5,10.991,24.5,24.5V435.5z" fill="#f0f0f0"/><path d="M204.803,342.197c-2.929-2.929-7.678-2.929-10.606,0l-40,40c-2.929,2.929-2.929,7.678,0,10.606l40,40   c1.464,1.464,3.384,2.197,5.303,2.197s3.839-0.732,5.303-2.197c2.929-2.929,2.929-7.678,0-10.606L170.106,387.5l34.697-34.697   C207.732,349.875,207.732,345.125,204.803,342.197z" fill="#f0f0f0"/><path d="M284.803,342.197c-2.929-2.929-7.678-2.929-10.606,0c-2.929,2.929-2.929,7.678,0,10.606l34.697,34.697l-34.697,34.697   c-2.929,2.929-2.929,7.678,0,10.606c1.464,1.464,3.384,2.197,5.303,2.197s3.839-0.732,5.303-2.197l40-40   c2.929-2.929,2.929-7.678,0-10.606L284.803,342.197z" fill="#f0f0f0"/><path d="M239.5,396c-1.97,0-3.91,0.8-5.3,2.2c-1.4,1.39-2.2,3.33-2.2,5.3c0,1.97,0.8,3.91,2.2,5.3c1.39,1.4,3.33,2.2,5.3,2.2   c1.97,0,3.91-0.8,5.3-2.2c1.4-1.39,2.2-3.33,2.2-5.3c0-1.97-0.8-3.91-2.2-5.3C243.41,396.8,241.47,396,239.5,396z" fill="#f0f0f0"/><path d="M263.5,396c-1.97,0-3.91,0.8-5.3,2.2c-1.4,1.39-2.2,3.33-2.2,5.3c0,1.97,0.8,3.91,2.2,5.3c1.39,1.4,3.33,2.2,5.3,2.2   c1.97,0,3.91-0.8,5.3-2.2c1.4-1.39,2.2-3.33,2.2-5.3c0-1.98-0.8-3.91-2.2-5.3C267.41,396.8,265.47,396,263.5,396z" fill="#f0f0f0"/><path d="M215.5,396c-1.97,0-3.91,0.8-5.3,2.2c-1.4,1.39-2.2,3.33-2.2,5.3c0,1.97,0.8,3.91,2.2,5.3c1.39,1.4,3.33,2.2,5.3,2.2   c1.97,0,3.91-0.8,5.3-2.2c1.4-1.39,2.2-3.33,2.2-5.3c0-1.97-0.8-3.91-2.2-5.3C219.41,396.8,217.47,396,215.5,396z" fill="#f0f0f0"/></g><g transform="matrix(0.12266408720918921 -0.017950841778530104 0.017950841778530104 0.12266408720918921 50.5728854946261 79.74576564345499)" id="L1_91"><path d="M470.962,102.751c-0.018-0.182-0.049-0.359-0.08-0.537c-0.011-0.063-0.017-0.128-0.029-0.191   c-0.042-0.21-0.096-0.416-0.155-0.619c-0.009-0.03-0.014-0.061-0.023-0.091c-0.063-0.207-0.138-0.409-0.218-0.608   c-0.011-0.027-0.019-0.055-0.03-0.081c-0.078-0.189-0.168-0.372-0.261-0.552c-0.019-0.037-0.034-0.075-0.054-0.112   c-0.089-0.167-0.189-0.327-0.291-0.486c-0.03-0.048-0.057-0.098-0.088-0.145c-0.101-0.151-0.213-0.295-0.324-0.438   c-0.039-0.05-0.073-0.102-0.113-0.151c-0.156-0.189-0.32-0.372-0.493-0.545L372.805,2.198c-0.173-0.173-0.355-0.338-0.545-0.493   c-0.049-0.04-0.102-0.074-0.151-0.113c-0.143-0.112-0.287-0.223-0.438-0.324c-0.047-0.032-0.097-0.058-0.145-0.088   c-0.159-0.101-0.319-0.201-0.486-0.291c-0.036-0.02-0.075-0.035-0.112-0.054c-0.181-0.093-0.364-0.183-0.552-0.261   c-0.027-0.011-0.055-0.019-0.081-0.03c-0.199-0.08-0.401-0.155-0.608-0.218c-0.03-0.009-0.061-0.015-0.091-0.023   c-0.203-0.059-0.409-0.114-0.619-0.156c-0.063-0.013-0.128-0.018-0.191-0.029c-0.178-0.031-0.355-0.062-0.537-0.08   C368.001,0.013,367.751,0,367.5,0h-224C121.72,0,104,17.72,104,39.5V80H71.5C54.131,80,40,94.131,40,111.5v80   c0,17.369,14.131,31.5,31.5,31.5H104v248.5c0,21.78,17.72,39.5,39.5,39.5h288c21.78,0,39.5-17.72,39.5-39.5v-368   C471,103.249,470.987,102.999,470.962,102.751z M375,25.606L445.394,96H399.5C385.991,96,375,85.009,375,71.5V25.606z M55,191.5   v-80c0-9.098,7.402-16.5,16.5-16.5h232c9.098,0,16.5,7.402,16.5,16.5v80c0,9.098-7.402,16.5-16.5,16.5H111.519   c-0.006,0-0.013-0.001-0.019-0.001S111.487,208,111.481,208H71.5C62.402,208,55,200.598,55,191.5z M431.5,496h-288   c-13.509,0-24.5-10.991-24.5-24.5V223h184.5c17.369,0,31.5-14.131,31.5-31.5v-80c0-17.369-14.131-31.5-31.5-31.5H119V39.5   c0-13.509,10.991-24.5,24.5-24.5H360v56.5c0,21.78,17.72,39.5,39.5,39.5H456v360.5C456,485.009,445.009,496,431.5,496z" fill="#f2f2f2"/><path d="M223,319.5c0-4.687,3.813-8.5,8.5-8.5h8c4.142,0,7.5-3.358,7.5-7.5s-3.358-7.5-7.5-7.5h-8c-12.958,0-23.5,10.542-23.5,23.5   v24c0,4.687-3.813,8.5-8.5,8.5c-4.142,0-7.5,3.358-7.5,7.5s3.358,7.5,7.5,7.5c4.687,0,8.5,3.813,8.5,8.5v24   c0,12.958,10.542,23.5,23.5,23.5h8c4.142,0,7.5-3.358,7.5-7.5s-3.358-7.5-7.5-7.5h-8c-4.687,0-8.5-3.813-8.5-8.5v-24   c0-6.175-2.394-11.802-6.303-16c3.909-4.198,6.303-9.825,6.303-16V319.5z" fill="#f2f2f2"/><path d="M375.5,352c-4.687,0-8.5-3.813-8.5-8.5v-24c0-12.958-10.542-23.5-23.5-23.5h-8c-4.142,0-7.5,3.358-7.5,7.5   s3.358,7.5,7.5,7.5h8c4.687,0,8.5,3.813,8.5,8.5v24c0,6.175,2.394,11.802,6.303,16c-3.909,4.198-6.303,9.825-6.303,16v24   c0,4.687-3.813,8.5-8.5,8.5h-8c-4.142,0-7.5,3.358-7.5,7.5s3.358,7.5,7.5,7.5h8c12.958,0,23.5-10.542,23.5-23.5v-24   c0-4.687,3.813-8.5,8.5-8.5c4.142,0,7.5-3.358,7.5-7.5S379.642,352,375.5,352z" fill="#f2f2f2"/><path d="M255.503,384c-1.98,0-3.91,0.8-5.31,2.2c-1.39,1.39-2.19,3.33-2.19,5.3c0,1.98,0.8,3.91,2.19,5.3   c1.4,1.4,3.33,2.2,5.31,2.2c1.97,0,3.9-0.8,5.3-2.2c1.4-1.39,2.2-3.32,2.2-5.3c0-1.97-0.8-3.91-2.2-5.3   C259.403,384.8,257.473,384,255.503,384z" fill="#f2f2f2"/><path d="M287.503,384c-1.98,0-3.91,0.8-5.31,2.2c-1.39,1.39-2.19,3.33-2.19,5.3c0,1.97,0.8,3.91,2.19,5.3   c1.4,1.4,3.33,2.2,5.31,2.2c1.97,0,3.9-0.8,5.3-2.2c1.4-1.39,2.2-3.32,2.2-5.3s-0.8-3.91-2.2-5.3   C291.403,384.8,289.473,384,287.503,384z" fill="#f2f2f2"/><path d="M319.503,384c-1.98,0-3.91,0.8-5.31,2.2c-1.39,1.39-2.19,3.33-2.19,5.3c0,1.98,0.8,3.91,2.19,5.3   c1.4,1.4,3.33,2.2,5.31,2.2c1.97,0,3.9-0.8,5.3-2.2c1.4-1.39,2.2-3.32,2.2-5.3c0-1.97-0.8-3.91-2.2-5.3   C323.403,384.8,321.473,384,319.503,384z" fill="#f2f2f2"/><path d="M199.5,176h-40c-4.142,0-7.5,3.358-7.5,7.5s3.358,7.5,7.5,7.5h40c12.958,0,23.5-10.542,23.5-23.5S212.458,144,199.5,144   h-24c-4.687,0-8.5-3.813-8.5-8.5s3.813-8.5,8.5-8.5h32c4.142,0,7.5-3.358,7.5-7.5s-3.358-7.5-7.5-7.5h-32   c-12.958,0-23.5,10.542-23.5,23.5s10.542,23.5,23.5,23.5h24c4.687,0,8.5,3.813,8.5,8.5S204.187,176,199.5,176z" fill="#f2f2f2"/><path d="M279.5,176h-40c-4.142,0-7.5,3.358-7.5,7.5s3.358,7.5,7.5,7.5h40c12.958,0,23.5-10.542,23.5-23.5S292.458,144,279.5,144   h-24c-4.687,0-8.5-3.813-8.5-8.5s3.813-8.5,8.5-8.5h32c4.142,0,7.5-3.358,7.5-7.5s-3.358-7.5-7.5-7.5h-32   c-12.958,0-23.5,10.542-23.5,23.5s10.542,23.5,23.5,23.5h24c4.687,0,8.5,3.813,8.5,8.5S284.187,176,279.5,176z" fill="#f2f2f2"/><path d="M111.5,191c8.835,0,17.344-3.82,23.344-10.48c2.772-3.078,2.525-7.82-0.552-10.592c-3.078-2.771-7.819-2.525-10.592,0.552   c-3.207,3.56-7.539,5.52-12.199,5.52h-8c-9.098,0-16.5-7.402-16.5-16.5v-16c0-9.098,7.402-16.5,16.5-16.5h8   c4.66,0,8.993,1.96,12.199,5.52c2.772,3.078,7.514,3.325,10.592,0.552c3.078-2.772,3.325-7.515,0.552-10.592   c-6-6.66-14.508-10.48-23.344-10.48h-8C86.131,112,72,126.131,72,143.5v16c0,17.369,14.131,31.5,31.5,31.5H111.5z" fill="#f2f2f2"/></g><g transform="matrix(0.11073623597621918 0 0 0.11073623597621918 234.2068915590644 59.20689155906439)" id="L1_92"><path d="M327.5,0C226.318,0,144,82.318,144,183.5c0,47.899,18.455,91.563,48.619,124.275l-23.391,23.391   c-0.468,0.468-0.853,0.986-1.172,1.532C163.131,329.642,157.443,328,151.5,328c-8.417,0-16.327,3.278-22.272,9.228L9.229,457.227   C3.278,463.176,0,471.086,0,479.5s3.278,16.324,9.226,22.27C15.173,507.722,23.083,511,31.5,511s16.327-3.278,22.272-9.228   l119.999-119.999c5.951-5.949,9.229-13.859,9.229-22.273c0-5.943-1.642-11.631-4.698-16.556c0.546-0.319,1.065-0.703,1.533-1.172   l23.391-23.391C235.937,348.545,279.601,367,327.5,367C428.682,367,511,284.682,511,183.5S428.682,0,327.5,0z M43.163,491.167   C40.05,494.284,35.908,496,31.5,496s-8.55-1.716-11.667-4.835C16.716,488.049,15,483.906,15,479.5s1.716-8.549,4.834-11.666   l106.697-106.697l23.331,23.331L43.163,491.167z M163.166,371.166l-2.697,2.697l-23.331-23.331l2.699-2.699   c3.113-3.116,7.255-4.833,11.663-4.833s8.55,1.716,11.667,4.835c3.117,3.116,4.833,7.258,4.833,11.665   S166.284,368.049,163.166,371.166z M327.5,352C234.589,352,159,276.411,159,183.5S234.589,15,327.5,15S496,90.589,496,183.5   S420.411,352,327.5,352z" fill="#f2f2f2"/><path d="M279.5,247c1.919,0,3.839-0.732,5.303-2.197c2.929-2.929,2.929-7.678,0-10.606L234.106,183.5l50.697-50.697   c2.929-2.929,2.929-7.678,0-10.606c-2.929-2.929-7.678-2.929-10.606,0l-56,56c-2.929,2.929-2.929,7.678,0,10.606l56,56   C275.661,246.268,277.581,247,279.5,247z" fill="#f2f2f2"/><path d="M380.803,122.197c-2.929-2.929-7.678-2.929-10.606,0c-2.929,2.929-2.929,7.678,0,10.606l50.697,50.697l-50.697,50.697   c-2.929,2.929-2.929,7.678,0,10.606c1.464,1.464,3.384,2.197,5.303,2.197s3.839-0.732,5.303-2.197l56-56   c2.929-2.929,2.929-7.678,0-10.606L380.803,122.197z" fill="#f2f2f2"/><path d="M327.5,200c-1.97,0-3.91,0.8-5.3,2.2c-1.4,1.39-2.2,3.32-2.2,5.3c0,1.97,0.8,3.91,2.2,5.3c1.39,1.4,3.33,2.2,5.3,2.2   c1.97,0,3.91-0.8,5.3-2.2c1.4-1.39,2.2-3.33,2.2-5.3c0-1.98-0.8-3.91-2.2-5.3C331.41,200.8,329.47,200,327.5,200z" fill="#f2f2f2"/><path d="M359.5,200c-1.97,0-3.91,0.8-5.3,2.2c-1.4,1.39-2.2,3.33-2.2,5.3c0,1.97,0.8,3.91,2.2,5.3c1.39,1.4,3.33,2.2,5.3,2.2   c1.97,0,3.91-0.8,5.3-2.2c1.4-1.39,2.2-3.33,2.2-5.3c0-1.97-0.8-3.91-2.2-5.3C363.41,200.8,361.47,200,359.5,200z" fill="#f2f2f2"/><path d="M295.5,215c1.97,0,3.91-0.8,5.3-2.2c1.4-1.39,2.2-3.33,2.2-5.3c0-1.97-0.8-3.91-2.2-5.3c-1.39-1.4-3.33-2.2-5.3-2.2   c-1.97,0-3.91,0.8-5.3,2.2c-1.4,1.39-2.2,3.32-2.2,5.3c0,1.97,0.8,3.91,2.2,5.3C291.59,214.2,293.52,215,295.5,215z" fill="#f2f2f2"/><path d="M473.064,141.375c-9.877-34.188-31.68-63.969-61.392-83.858c-3.442-2.305-8.1-1.382-10.404,2.061   c-2.304,3.442-1.382,8.1,2.061,10.404c26.779,17.926,46.427,44.759,55.325,75.556c0.949,3.284,3.946,5.42,7.202,5.42   c0.689,0,1.39-0.096,2.085-0.297C471.92,149.512,474.214,145.354,473.064,141.375z" fill="#f2f2f2"/><path d="M312.324,319.167c-29.982-3.314-57.389-16.145-79.259-37.105c-2.99-2.867-7.738-2.765-10.604,0.225   c-2.866,2.99-2.766,7.738,0.225,10.604c23.926,22.931,55.175,37.558,87.989,41.185c0.28,0.031,0.558,0.046,0.833,0.046   c3.772,0,7.021-2.839,7.445-6.676C319.409,323.328,316.44,319.622,312.324,319.167z" fill="#f2f2f2"/><path d="M206.171,246.107c-1.902-3.68-6.428-5.12-10.107-3.217c-3.679,1.902-5.12,6.428-3.217,10.107   c2.601,5.029,5.519,9.969,8.675,14.683c1.447,2.161,3.821,3.329,6.239,3.329c1.434,0,2.884-0.411,4.166-1.269   c3.442-2.304,4.364-6.963,2.06-10.405C211.143,255.088,208.513,250.638,206.171,246.107z" fill="#f2f2f2"/><path d="M357.843,50.383c4.93,1.119,9.851,2.53,14.625,4.195c0.817,0.285,1.65,0.42,2.47,0.42c3.102,0,6.003-1.938,7.082-5.032   c1.364-3.911-0.701-8.188-4.612-9.551c-5.304-1.85-10.77-3.417-16.246-4.66c-4.038-0.917-8.057,1.614-8.974,5.654   C351.272,45.448,353.804,49.466,357.843,50.383z" fill="#f2f2f2"/></g><g transform="matrix(0.1342032339723948 -0.029524710795274297 0.029524710795274297 0.1342032339723948 285.16750985109024 144.2546370674754)" id="L1_93"><path d="M39.5,103c1.97,0,3.91-0.8,5.3-2.2c1.4-1.39,2.2-3.33,2.2-5.3s-0.8-3.91-2.2-5.3c-1.39-1.4-3.33-2.2-5.3-2.2   c-1.97,0-3.91,0.8-5.3,2.2c-1.4,1.39-2.2,3.33-2.2,5.3s0.8,3.91,2.2,5.3C35.59,102.2,37.53,103,39.5,103z" fill="#f5f5f5"/><path d="M63.5,103c1.97,0,3.91-0.8,5.3-2.2c1.4-1.39,2.2-3.33,2.2-5.3s-0.8-3.91-2.2-5.3c-1.39-1.4-3.33-2.2-5.3-2.2   c-1.97,0-3.91,0.8-5.3,2.2c-1.4,1.39-2.2,3.33-2.2,5.3s0.8,3.91,2.2,5.3C59.59,102.2,61.53,103,63.5,103z" fill="#f5f5f5"/><path d="M87.5,103c1.97,0,3.91-0.8,5.3-2.2c1.4-1.39,2.2-3.33,2.2-5.3s-0.8-3.91-2.2-5.3c-1.39-1.4-3.33-2.2-5.3-2.2   c-1.97,0-3.91,0.8-5.3,2.2c-1.4,1.39-2.2,3.33-2.2,5.3c0,1.98,0.8,3.91,2.2,5.3C83.59,102.2,85.53,103,87.5,103z" fill="#f5f5f5"/><path d="M119.5,103h304c4.142,0,7.5-3.358,7.5-7.5s-3.358-7.5-7.5-7.5h-304c-4.142,0-7.5,3.358-7.5,7.5S115.358,103,119.5,103z" fill="#f5f5f5"/><path d="M455.5,103h16c4.142,0,7.5-3.358,7.5-7.5s-3.358-7.5-7.5-7.5h-16c-4.142,0-7.5,3.358-7.5,7.5S451.358,103,455.5,103z" fill="#f5f5f5"/><path d="M215.5,272c-4.142,0-7.5,3.358-7.5,7.5v8c0,4.142,3.358,7.5,7.5,7.5s7.5-3.358,7.5-7.5v-8   C223,275.358,219.642,272,215.5,272z" fill="#f5f5f5"/><path d="M295.5,272c-4.142,0-7.5,3.358-7.5,7.5v8c0,4.142,3.358,7.5,7.5,7.5s7.5-3.358,7.5-7.5v-8   C303,275.358,299.642,272,295.5,272z" fill="#f5f5f5"/><path d="M471.5,56h-432C17.72,56,0,73.72,0,95.5v320C0,437.28,17.72,455,39.5,455h432c21.78,0,39.5-17.72,39.5-39.5v-320   C511,73.72,493.28,56,471.5,56z M39.5,71h432c13.509,0,24.5,10.991,24.5,24.5V120H15V95.5C15,81.991,25.991,71,39.5,71z    M327.105,298.926c-4.985,6.475-13.457,9.511-21.592,7.735l-48.022-10.488c-0.027-0.006-0.054-0.008-0.081-0.013   c-0.156-0.032-0.314-0.056-0.473-0.079c-0.092-0.013-0.184-0.029-0.276-0.038c-0.139-0.015-0.281-0.02-0.422-0.027   c-0.114-0.005-0.227-0.013-0.34-0.013c-0.113,0-0.226,0.007-0.339,0.012c-0.141,0.006-0.283,0.012-0.423,0.026   c-0.092,0.01-0.184,0.025-0.276,0.038c-0.158,0.022-0.316,0.045-0.471,0.077c-0.027,0.005-0.055,0.007-0.083,0.013l-48.847,10.555   c-7.857,1.697-16.014-1.103-21.041-7.137c-0.927-4.801-1.419-9.759-1.419-14.828v-28.12l71.432,14.216   c0.483,0.096,0.974,0.144,1.464,0.144c0.495,0,0.99-0.049,1.478-0.147L328,256.657V287.5c0,3.866-0.301,7.678-0.884,11.413   C327.112,298.917,327.108,298.921,327.105,298.926z M328,241.357l-72.112,14.494L183,241.346V239.5c0-31.154,25.346-56.5,56.5-56.5   h32c31.154,0,56.5,25.346,56.5,56.5V241.357z M200.898,322.211c2.569,0,5.161-0.27,7.729-0.825l47.254-10.211l46.431,10.14   c2.595,0.567,5.212,0.842,7.808,0.842c3.339,0,6.64-0.465,9.815-1.344c-3.743,7.213-8.721,13.833-14.865,19.593   c-14.775,13.849-34.093,20.751-54.411,19.436c-17.278-1.119-32.839-8.583-44.677-20.109c-0.608-1.049-1.476-1.958-2.568-2.625   c-4.439-4.771-8.272-10.147-11.382-15.993C194.915,321.83,197.89,322.211,200.898,322.211z M200.848,355.263   c13.538,11.208,30.381,18.353,48.842,19.548c1.972,0.128,3.934,0.191,5.888,0.191c20.161,0,39.257-6.777,54.848-19.409   c6.208,7.677,14.631,13.261,24.264,15.971l33.876,9.531c14.024,4.744,23.435,16.95,23.435,30.422V440h-41v-16.5   c0-4.142-3.358-7.5-7.5-7.5s-7.5,3.358-7.5,7.5V440H175v-16.5c0-4.142-3.358-7.5-7.5-7.5s-7.5,3.358-7.5,7.5V440h-41v-28.483   c0-13.472,9.411-25.678,23.435-30.422l33.876-9.531C186.108,368.808,194.622,363.113,200.848,355.263z M471.5,440H407v-28.483   c0-19.991-13.604-37.958-33.853-44.707c-0.112-0.038-0.226-0.073-0.34-0.105l-34.056-9.581   c-7.028-1.977-13.123-6.178-17.449-11.966C335.177,329.291,343,308.715,343,287.5v-39.94c0-0.019,0-0.037,0-0.056V239.5   c0-39.425-32.075-71.5-71.5-71.5h-32c-39.425,0-71.5,32.075-71.5,71.5v8.017c0,0.019,0,0.038,0,0.057v37.186   c0,22.882,8.333,43.9,22.068,59.892c-4.341,6.051-10.569,10.433-17.82,12.473l-34.056,9.581c-0.114,0.032-0.228,0.067-0.34,0.105   C117.604,373.56,104,391.526,104,411.517V440H39.5C25.991,440,15,429.009,15,415.5V135h481v280.5   C496,429.009,485.009,440,471.5,440z" fill="#f5f5f5"/></g><g transform="matrix(0.13231860535511783 -0.03545466344851624 0.03545466344851624 0.13231860535511783 132.13392955990116 150.25126258209298)" id="L1_94"><path d="M39.5,103c1.97,0,3.91-0.8,5.3-2.2c1.4-1.39,2.2-3.33,2.2-5.3s-0.8-3.91-2.2-5.3c-1.39-1.4-3.32-2.2-5.3-2.2   s-3.91,0.8-5.3,2.2c-1.4,1.39-2.2,3.33-2.2,5.3s0.8,3.91,2.2,5.3C35.59,102.2,37.53,103,39.5,103z" fill="#f5f5f5"/><path d="M63.5,103c1.98,0,3.91-0.8,5.3-2.2c1.4-1.39,2.2-3.33,2.2-5.3s-0.8-3.91-2.2-5.3c-1.39-1.4-3.33-2.2-5.3-2.2   c-1.97,0-3.91,0.8-5.3,2.2c-1.4,1.39-2.2,3.33-2.2,5.3s0.8,3.91,2.2,5.3C59.59,102.2,61.53,103,63.5,103z" fill="#f5f5f5"/><path d="M87.5,103c1.97,0,3.91-0.8,5.3-2.2c1.4-1.39,2.2-3.33,2.2-5.3s-0.8-3.91-2.2-5.3c-1.39-1.4-3.33-2.2-5.3-2.2   c-1.97,0-3.91,0.8-5.3,2.2c-1.4,1.39-2.2,3.33-2.2,5.3s0.8,3.91,2.2,5.3C83.59,102.2,85.53,103,87.5,103z" fill="#f5f5f5"/><path d="M119.5,103h304c4.142,0,7.5-3.358,7.5-7.5s-3.358-7.5-7.5-7.5h-304c-4.142,0-7.5,3.358-7.5,7.5S115.358,103,119.5,103z" fill="#f5f5f5"/><path d="M455.5,103h16c4.142,0,7.5-3.358,7.5-7.5s-3.358-7.5-7.5-7.5h-16c-4.142,0-7.5,3.358-7.5,7.5S451.358,103,455.5,103z" fill="#f5f5f5"/><path d="M439.5,168h-144c-12.958,0-23.5,10.542-23.5,23.5v0.5h-8.5c-12.958,0-23.5,10.542-23.5,23.5V280h-17v-24.5   c0-12.958-10.542-23.5-23.5-23.5h-128C58.542,232,48,242.542,48,255.5v64c0,12.958,10.542,23.5,23.5,23.5h128   c12.958,0,23.5-10.542,23.5-23.5V295h17v64.5c0,12.958,10.542,23.5,23.5,23.5h8.5v0.5c0,12.958,10.542,23.5,23.5,23.5h144   c12.958,0,23.5-10.542,23.5-23.5v-16c0-12.958-10.542-23.5-23.5-23.5h-144c-12.958,0-23.5,10.542-23.5,23.5v0.5h-8.5   c-4.687,0-8.5-3.813-8.5-8.5V295h17v0.5c0,12.958,10.542,23.5,23.5,23.5h144c12.958,0,23.5-10.542,23.5-23.5v-16   c0-12.958-10.542-23.5-23.5-23.5h-144c-12.958,0-23.5,10.542-23.5,23.5v0.5h-17v-64.5c0-4.687,3.813-8.5,8.5-8.5h8.5v0.5   c0,12.958,10.542,23.5,23.5,23.5h144c12.958,0,23.5-10.542,23.5-23.5v-16C463,178.542,452.458,168,439.5,168z M208,319.5   c0,4.687-3.813,8.5-8.5,8.5h-128c-4.687,0-8.5-3.813-8.5-8.5v-64c0-4.687,3.813-8.5,8.5-8.5h128c4.687,0,8.5,3.813,8.5,8.5V319.5z    M287,367.5c0-4.687,3.813-8.5,8.5-8.5h144c4.687,0,8.5,3.813,8.5,8.5v16c0,4.687-3.813,8.5-8.5,8.5h-144   c-4.687,0-8.5-3.813-8.5-8.5V367.5z M287,279.5c0-4.687,3.813-8.5,8.5-8.5h144c4.687,0,8.5,3.813,8.5,8.5v16   c0,4.687-3.813,8.5-8.5,8.5h-144c-4.687,0-8.5-3.813-8.5-8.5V279.5z M448,207.5c0,4.687-3.813,8.5-8.5,8.5h-144   c-4.687,0-8.5-3.813-8.5-8.5v-16c0-4.687,3.813-8.5,8.5-8.5h144c4.687,0,8.5,3.813,8.5,8.5V207.5z" fill="#f5f5f5"/><path d="M471.5,56h-432C17.72,56,0,73.72,0,95.5v320C0,437.28,17.72,455,39.5,455h432c21.78,0,39.5-17.72,39.5-39.5v-320   C511,73.72,493.28,56,471.5,56z M39.5,71h432c13.509,0,24.5,10.991,24.5,24.5V120H15V95.5C15,81.991,25.991,71,39.5,71z M471.5,440   h-432C25.991,440,15,429.009,15,415.5V135h481v280.5C496,429.009,485.009,440,471.5,440z" fill="#f5f5f5"/></g><g transform="matrix(0.12931765615940094 0 0 0.12931765615940094 51.45089672826339 232.45937887822015)" id="L1_95"><path d="M226.463,448h-144c-13.509,0-24.5-10.991-24.5-24.5v-384c0-13.509,10.991-24.5,24.5-24.5h216.5v40.5   c0,21.78,17.72,39.5,39.5,39.5h40.5v152.5c0,4.142,3.358,7.5,7.5,7.5s7.5-3.358,7.5-7.5v-160c0-0.251-0.013-0.501-0.038-0.749   c-0.018-0.182-0.049-0.359-0.08-0.537c-0.011-0.063-0.017-0.128-0.029-0.191c-0.042-0.21-0.096-0.416-0.155-0.619   c-0.009-0.03-0.014-0.061-0.023-0.091c-0.063-0.207-0.138-0.409-0.218-0.608c-0.011-0.027-0.019-0.055-0.03-0.081   c-0.078-0.189-0.168-0.372-0.261-0.552c-0.019-0.037-0.034-0.075-0.054-0.112c-0.089-0.167-0.189-0.327-0.291-0.486   c-0.03-0.048-0.057-0.098-0.088-0.145c-0.101-0.151-0.213-0.295-0.324-0.438c-0.039-0.05-0.073-0.102-0.113-0.151   c-0.156-0.189-0.32-0.372-0.493-0.545L311.768,2.198c-0.173-0.173-0.355-0.338-0.545-0.493c-0.049-0.04-0.102-0.074-0.151-0.113   c-0.143-0.112-0.287-0.223-0.438-0.324c-0.047-0.032-0.097-0.058-0.145-0.088c-0.159-0.101-0.319-0.201-0.486-0.291   c-0.036-0.02-0.075-0.035-0.112-0.054c-0.181-0.093-0.364-0.183-0.552-0.261c-0.027-0.011-0.055-0.019-0.081-0.03   c-0.199-0.08-0.401-0.155-0.608-0.218c-0.03-0.009-0.061-0.015-0.091-0.023c-0.203-0.059-0.409-0.114-0.619-0.156   c-0.063-0.013-0.128-0.018-0.191-0.029c-0.178-0.031-0.355-0.062-0.537-0.08C306.964,0.013,306.714,0,306.463,0h-224   c-21.78,0-39.5,17.72-39.5,39.5v384c0,21.78,17.72,39.5,39.5,39.5h144c4.142,0,7.5-3.358,7.5-7.5S230.605,448,226.463,448z    M313.963,55.5V25.606L368.357,80h-29.894C324.954,80,313.963,69.009,313.963,55.5z" fill="#f7f7f7"/><path d="M354.463,328c-35.014,0-63.5,28.486-63.5,63.5s28.486,63.5,63.5,63.5s63.5-28.486,63.5-63.5S389.477,328,354.463,328z    M354.463,440c-26.743,0-48.5-21.757-48.5-48.5s21.757-48.5,48.5-48.5s48.5,21.757,48.5,48.5S381.206,440,354.463,440z" fill="#f7f7f7"/><path d="M460.28,416.22l-4.75-2.742c1.616-7.34,2.433-14.709,2.433-21.978s-0.817-14.638-2.433-21.978l4.75-2.742   c3.586-2.07,6.15-5.413,7.222-9.412c1.072-4,0.521-8.177-1.549-11.762l-16-27.712c-2.07-3.586-5.413-6.151-9.412-7.223   c-3.999-1.07-8.175-0.521-11.762,1.549l-4.721,2.726c-10.949-9.944-23.944-17.428-38.096-21.94V287.5c0-8.547-6.953-15.5-15.5-15.5   h-32c-8.547,0-15.5,6.953-15.5,15.5v5.505c-14.151,4.512-27.146,11.996-38.096,21.94l-4.721-2.726   c-3.585-2.07-7.764-2.62-11.761-1.548c-4,1.072-7.342,3.637-9.412,7.222l-16,27.712c-2.071,3.585-2.621,7.763-1.549,11.762   c1.072,3.999,3.636,7.341,7.222,9.412l4.75,2.742c-1.616,7.34-2.433,14.709-2.433,21.978s0.817,14.638,2.433,21.978l-4.749,2.742   c-3.586,2.07-6.151,5.413-7.223,9.412c-1.071,3.999-0.521,8.176,1.549,11.762l16,27.713c4.273,7.401,13.771,9.947,21.173,5.673   l4.721-2.726c10.949,9.944,23.944,17.428,38.096,21.94v5.505c0,8.547,6.953,15.5,15.5,15.5h32c8.547,0,15.5-6.953,15.5-15.5v-5.505   c14.151-4.512,27.146-11.996,38.096-21.94l4.721,2.726c7.399,4.271,16.899,1.727,21.173-5.674l16-27.713   c2.07-3.585,2.62-7.763,1.549-11.762C466.43,421.633,463.865,418.29,460.28,416.22z M439.664,367.852   c2.189,7.9,3.299,15.857,3.299,23.648s-1.11,15.748-3.299,23.648c-0.913,3.294,0.517,6.789,3.478,8.498l9.638,5.564c0,0,0,0,0,0   c0.044,0.025,0.179,0.104,0.233,0.303c0.053,0.2-0.024,0.335-0.05,0.379l-16,27.713c-0.138,0.239-0.443,0.322-0.683,0.183   l-9.602-5.543c-2.962-1.711-6.705-1.201-9.101,1.24c-11.218,11.421-25.391,19.583-40.987,23.605   c-3.312,0.854-5.627,3.841-5.627,7.262V495.5c0,0.276-0.224,0.5-0.5,0.5h-32c-0.276,0-0.5-0.224-0.5-0.5v-11.146   c0-3.421-2.315-6.408-5.627-7.262c-15.596-4.022-29.77-12.185-40.987-23.605c-1.449-1.475-3.39-2.245-5.353-2.245   c-1.284,0-2.577,0.329-3.748,1.005l-9.601,5.543c-0.24,0.138-0.545,0.056-0.684-0.183l-16-27.713   c-0.026-0.044-0.104-0.18-0.05-0.379c0.054-0.2,0.188-0.278,0.233-0.304l9.638-5.564c2.96-1.709,4.391-5.204,3.478-8.498   c-2.189-7.9-3.299-15.857-3.299-23.648s1.11-15.748,3.299-23.648c0.913-3.294-0.517-6.789-3.478-8.498l-9.638-5.564   c-0.044-0.026-0.18-0.104-0.233-0.304c-0.053-0.2,0.024-0.334,0.05-0.379l16.001-27.713c0.137-0.239,0.444-0.321,0.683-0.183   l9.602,5.543c2.961,1.709,6.704,1.2,9.101-1.24c11.218-11.421,25.391-19.583,40.987-23.605c3.312-0.854,5.627-3.841,5.627-7.262   V287.5c0-0.276,0.224-0.5,0.5-0.5h32c0.276,0,0.5,0.224,0.5,0.5v11.146c0,3.421,2.315,6.408,5.627,7.262   c15.596,4.022,29.77,12.185,40.987,23.605c2.396,2.439,6.138,2.948,9.101,1.24l9.601-5.543c0.24-0.14,0.545-0.056,0.684,0.183   l16,27.713c0.025,0.044,0.103,0.179,0.05,0.379c-0.054,0.2-0.189,0.278-0.233,0.304l-9.638,5.564   C440.182,361.063,438.751,364.558,439.664,367.852z" fill="#f7f7f7"/><path d="M98.463,143h16c4.142,0,7.5-3.358,7.5-7.5s-3.358-7.5-7.5-7.5h-16c-4.142,0-7.5,3.358-7.5,7.5S94.321,143,98.463,143z" fill="#f7f7f7"/><path d="M146.463,143h16c4.142,0,7.5-3.358,7.5-7.5s-3.358-7.5-7.5-7.5h-16c-4.142,0-7.5,3.358-7.5,7.5S142.321,143,146.463,143z" fill="#f7f7f7"/><path d="M274.463,128h-80c-4.142,0-7.5,3.358-7.5,7.5s3.358,7.5,7.5,7.5h80c4.142,0,7.5-3.358,7.5-7.5S278.605,128,274.463,128z" fill="#f7f7f7"/><path d="M217.963,175.5c0-4.142-3.358-7.5-7.5-7.5h-64c-4.142,0-7.5,3.358-7.5,7.5s3.358,7.5,7.5,7.5h64   C214.605,183,217.963,179.642,217.963,175.5z" fill="#f7f7f7"/><path d="M234.963,175.5c0,4.142,3.358,7.5,7.5,7.5h56c4.142,0,7.5-3.358,7.5-7.5s-3.358-7.5-7.5-7.5h-56   C238.321,168,234.963,171.358,234.963,175.5z" fill="#f7f7f7"/><path d="M98.463,183h16c4.142,0,7.5-3.358,7.5-7.5s-3.358-7.5-7.5-7.5h-16c-4.142,0-7.5,3.358-7.5,7.5S94.321,183,98.463,183z" fill="#f7f7f7"/><path d="M98.463,223h16c4.142,0,7.5-3.358,7.5-7.5s-3.358-7.5-7.5-7.5h-16c-4.142,0-7.5,3.358-7.5,7.5S94.321,223,98.463,223z" fill="#f7f7f7"/><path d="M202.463,223h136c4.142,0,7.5-3.358,7.5-7.5s-3.358-7.5-7.5-7.5h-136c-4.142,0-7.5,3.358-7.5,7.5S198.321,223,202.463,223z   " fill="#f7f7f7"/><path d="M146.463,208c-4.142,0-7.5,3.358-7.5,7.5s3.358,7.5,7.5,7.5h24c4.142,0,7.5-3.358,7.5-7.5s-3.358-7.5-7.5-7.5H146.463z" fill="#f7f7f7"/><path d="M234.463,248h-88c-4.142,0-7.5,3.358-7.5,7.5s3.358,7.5,7.5,7.5h88c4.142,0,7.5-3.358,7.5-7.5S238.605,248,234.463,248z" fill="#f7f7f7"/><path d="M138.463,327h32c4.142,0,7.5-3.358,7.5-7.5s-3.358-7.5-7.5-7.5h-32c-4.142,0-7.5,3.358-7.5,7.5S134.321,327,138.463,327z" fill="#f7f7f7"/><path d="M98.463,263h16c4.142,0,7.5-3.358,7.5-7.5s-3.358-7.5-7.5-7.5h-16c-4.142,0-7.5,3.358-7.5,7.5S94.321,263,98.463,263z" fill="#f7f7f7"/><path d="M93.16,324.803c1.464,1.464,3.384,2.197,5.303,2.197s3.839-0.732,5.303-2.197l16-16c2.929-2.929,2.929-7.678,0-10.606   l-16-16c-2.929-2.929-7.678-2.929-10.606,0c-2.929,2.929-2.929,7.678,0,10.606l10.697,10.697L93.16,314.197   C90.231,317.125,90.231,321.875,93.16,324.803z" fill="#f7f7f7"/></g><g transform="matrix(0.1422940194606781 0 0 0.1422940194606781 219.64387780427933 211.64387780427933)" id="L1_97"><path d="M492.168,309.579l-17.626-10.177c2.96-14.723,4.458-29.466,4.458-43.902c0-14.646-1.474-29.403-4.384-43.946l17.552-10.134   c5.436-3.138,9.325-8.206,10.949-14.269s0.791-12.396-2.348-17.832l-48-83.139c-3.139-5.436-8.206-9.325-14.269-10.949   c-6.064-1.624-12.396-0.791-17.833,2.348l-17.566,10.142C380.912,68.2,354.798,53.092,327,43.692V23.5   C327,10.542,316.458,0,303.5,0h-96C194.542,0,184,10.542,184,23.5v20.193c-27.65,9.362-53.728,24.49-75.999,44.088L90.332,77.579   c-5.437-3.139-11.77-3.973-17.833-2.348c-6.063,1.625-11.13,5.513-14.269,10.949l-48,83.139   c-3.139,5.436-3.972,11.769-2.348,17.832s5.513,11.131,10.949,14.269l17.626,10.177C33.499,226.32,32,241.063,32,255.5   c0,14.644,1.474,29.401,4.384,43.945l-17.552,10.134c-11.222,6.479-15.08,20.879-8.602,32.102l48,83.139   c6.479,11.221,20.879,15.08,32.102,8.601l17.565-10.142c22.19,19.521,48.303,34.629,76.103,44.03V487.5   c0,12.958,10.542,23.5,23.5,23.5h96c12.958,0,23.5-10.542,23.5-23.5v-20.193c27.651-9.362,53.729-24.49,76-44.087l17.668,10.201   c11.221,6.479,25.623,2.62,32.102-8.601l48-83.139C507.248,330.458,503.39,316.058,492.168,309.579z M487.779,334.181l-48,83.138   c-2.343,4.06-7.552,5.455-11.611,3.111l-22.392-12.928c-2.845-1.643-6.43-1.242-8.842,0.989   c-22.893,21.173-50.437,37.148-79.653,46.199c-3.14,0.973-5.281,3.877-5.281,7.164V487.5c0,4.687-3.813,8.5-8.5,8.5h-96   c-4.687,0-8.5-3.813-8.5-8.5v-25.645c0-3.287-2.141-6.191-5.28-7.164c-29.396-9.107-56.974-25.062-79.755-46.139   c-1.421-1.315-3.25-1.995-5.095-1.995c-1.286,0-2.579,0.33-3.748,1.005L82.832,420.43c-4.06,2.343-9.268,0.948-11.611-3.111   l-48-83.138c-2.343-4.059-0.947-9.268,3.111-11.612l22.272-12.859c2.844-1.642,4.289-4.942,3.566-8.146   C48.739,286.357,47,270.858,47,255.5c0-15.1,1.765-30.584,5.247-46.022c0.722-3.203-0.723-6.504-3.566-8.145L26.332,188.43   c-1.966-1.135-3.372-2.968-3.96-5.161c-0.587-2.193-0.286-4.484,0.849-6.45l48-83.139c1.135-1.966,2.968-3.373,5.162-3.96   c2.192-0.588,4.484-0.286,6.45,0.849l22.392,12.928c2.846,1.644,6.43,1.242,8.842-0.989c22.894-21.173,50.437-37.148,79.653-46.199   c3.14-0.973,5.281-3.877,5.281-7.164V23.5c0-4.687,3.813-8.5,8.5-8.5h96c4.687,0,8.5,3.813,8.5,8.5v25.645   c0,3.287,2.141,6.191,5.28,7.164c29.395,9.106,56.973,25.061,79.755,46.139c2.412,2.232,5.997,2.633,8.843,0.99l22.29-12.869   c1.967-1.135,4.258-1.437,6.45-0.849c2.193,0.588,4.026,1.994,5.162,3.96l48,83.139c1.135,1.966,1.437,4.257,0.849,6.45   c-0.588,2.193-1.994,4.026-3.96,5.161l-22.272,12.859c-2.844,1.642-4.289,4.943-3.566,8.146c3.431,15.206,5.17,30.704,5.17,46.065   c0,15.1-1.765,30.584-5.247,46.021c-0.722,3.203,0.723,6.503,3.566,8.145l22.349,12.903   C488.727,324.913,490.123,330.122,487.779,334.181z" fill="#f5f5f5"/><path d="M255.5,104C171.962,104,104,171.963,104,255.5S171.962,407,255.5,407S407,339.037,407,255.5S339.038,104,255.5,104z    M255.5,392C180.234,392,119,330.766,119,255.5S180.234,119,255.5,119S392,180.234,392,255.5S330.766,392,255.5,392z" fill="#f5f5f5"/><path d="M283.5,216h-28c-4.142,0-7.5,3.358-7.5,7.5v64c0,4.142,3.358,7.5,7.5,7.5s7.5-3.358,7.5-7.5V271h20.5   c15.164,0,27.5-12.336,27.5-27.5S298.664,216,283.5,216z M283.5,256H263v-25h20.5c6.893,0,12.5,5.607,12.5,12.5   S290.393,256,283.5,256z" fill="#f5f5f5"/><path d="M214.522,220.867c-1.098-2.927-3.896-4.867-7.022-4.867h-8c-3.126,0-5.925,1.939-7.022,4.867l-24,64   c-1.455,3.878,0.511,8.201,4.389,9.656c3.878,1.455,8.201-0.511,9.656-4.389L186.697,279h33.605l4.175,11.133   c1.129,3.011,3.987,4.869,7.023,4.869c0.875,0,1.765-0.154,2.632-0.479c3.878-1.454,5.844-5.778,4.389-9.656L214.522,220.867z    M192.322,264l11.178-29.807L214.678,264H192.322z" fill="#f5f5f5"/><path d="M327.5,216c-4.142,0-7.5,3.358-7.5,7.5v64c0,4.142,3.358,7.5,7.5,7.5s7.5-3.358,7.5-7.5v-64   C335,219.358,331.642,216,327.5,216z" fill="#f5f5f5"/><path d="M309.152,87.3c5.205,1.659,10.394,3.586,15.421,5.726c0.958,0.408,1.954,0.601,2.934,0.601c2.916,0,5.69-1.712,6.904-4.564   c1.622-3.811-0.152-8.216-3.963-9.838c-5.458-2.323-11.09-4.415-16.742-6.216c-3.945-1.258-8.165,0.922-9.423,4.868   C303.026,81.823,305.206,86.042,309.152,87.3z" fill="#f5f5f5"/><path d="M100.45,339.904c-1.984-3.636-6.541-4.976-10.176-2.992c-3.636,1.984-4.976,6.54-2.992,10.176   c3.112,5.704,6.557,11.315,10.239,16.677c1.454,2.117,3.801,3.255,6.189,3.255c1.463,0,2.941-0.427,4.239-1.318   c3.415-2.345,4.282-7.014,1.937-10.428C106.493,350.332,103.318,345.161,100.45,339.904z" fill="#f5f5f5"/><path d="M240.14,431.341c-40.189-3.463-78.337-20.879-107.416-49.041c-2.976-2.882-7.724-2.805-10.605,0.17   c-2.881,2.976-2.806,7.724,0.17,10.605c31.55,30.555,72.947,49.452,116.563,53.21c0.219,0.019,0.436,0.028,0.652,0.028   c3.851,0,7.127-2.949,7.464-6.856C247.323,435.331,244.266,431.697,240.14,431.341z" fill="#f5f5f5"/><path d="M363.425,97.287c-3.42-2.337-8.087-1.459-10.424,1.96c-2.337,3.42-1.459,8.087,1.96,10.424   c34.844,23.813,60.049,59.248,70.972,99.776c0.902,3.346,3.93,5.55,7.237,5.55c0.646,0,1.303-0.084,1.956-0.26   c4-1.078,6.368-5.194,5.29-9.193C428.564,161.564,401.221,123.118,363.425,97.287z" fill="#f5f5f5"/></g><g transform="matrix(0.1006906235130886 0.03146582033167957 -0.03146582033167957 0.1006906235130886 118.31306256363257 198.23402837414432)" id="L1_98"><path d="M479.5,132h-448C14.131,132,0,146.131,0,163.5v96C0,276.869,14.131,291,31.5,291h280c4.142,0,7.5-3.358,7.5-7.5   s-3.358-7.5-7.5-7.5h-280c-9.098,0-16.5-7.402-16.5-16.5v-96c0-9.098,7.402-16.5,16.5-16.5h448c9.098,0,16.5,7.402,16.5,16.5v72   c0,4.142,3.358,7.5,7.5,7.5s7.5-3.358,7.5-7.5v-72C511,146.131,496.869,132,479.5,132z" fill="#f5f5f5"/><path d="M479,253.234V243.5c0-35.014-28.486-63.5-63.5-63.5S352,208.486,352,243.5v9.734c-9.29,3.138-16,11.93-16,22.266v80   c0,12.958,10.542,23.5,23.5,23.5h112c12.958,0,23.5-10.542,23.5-23.5v-80C495,265.164,488.29,256.372,479,253.234z M415.5,195   c26.743,0,48.5,21.757,48.5,48.5v8.5h-97v-8.5C367,216.757,388.757,195,415.5,195z M480,355.5c0,4.687-3.813,8.5-8.5,8.5h-112   c-4.687,0-8.5-3.813-8.5-8.5v-80c0-4.687,3.813-8.5,8.5-8.5h112c4.687,0,8.5,3.813,8.5,8.5V355.5z" fill="#f5f5f5"/><path d="M121.708,191.75c-2.071-3.588-6.658-4.816-10.245-2.745L95,198.51V179.5c0-4.142-3.358-7.5-7.5-7.5s-7.5,3.358-7.5,7.5   v19.01l-16.463-9.505c-3.587-2.072-8.174-0.842-10.245,2.745c-2.071,3.587-0.842,8.174,2.745,10.245L72.5,211.5l-16.463,9.505   c-3.587,2.071-4.816,6.658-2.745,10.245c1.389,2.406,3.91,3.751,6.502,3.751c1.272,0,2.562-0.324,3.743-1.006L80,224.49v19.01   c0,4.142,3.358,7.5,7.5,7.5s7.5-3.358,7.5-7.5v-19.01l16.463,9.505c1.181,0.682,2.471,1.006,3.743,1.006   c2.592,0,5.113-1.345,6.502-3.751c2.071-3.587,0.842-8.174-2.745-10.245L102.5,211.5l16.463-9.505   C122.55,199.924,123.779,195.337,121.708,191.75z" fill="#f5f5f5"/><path d="M217.708,191.75c-2.071-3.588-6.658-4.816-10.245-2.745L191,198.51V179.5c0-4.142-3.358-7.5-7.5-7.5s-7.5,3.358-7.5,7.5   v19.01l-16.463-9.505c-3.587-2.072-8.174-0.842-10.245,2.745c-2.071,3.587-0.842,8.174,2.745,10.245L168.5,211.5l-16.463,9.505   c-3.587,2.071-4.816,6.658-2.745,10.245c1.389,2.406,3.91,3.751,6.502,3.751c1.272,0,2.562-0.324,3.743-1.006L176,224.49v19.01   c0,4.142,3.358,7.5,7.5,7.5s7.5-3.358,7.5-7.5v-19.01l16.463,9.505c1.181,0.682,2.471,1.006,3.743,1.006   c2.592,0,5.113-1.345,6.502-3.751c2.071-3.587,0.842-8.174-2.745-10.245L198.5,211.5l16.463-9.505   C218.55,199.924,219.779,195.337,217.708,191.75z" fill="#f5f5f5"/><path d="M313.708,191.75c-2.071-3.588-6.658-4.816-10.245-2.745L287,198.51V179.5c0-4.142-3.358-7.5-7.5-7.5s-7.5,3.358-7.5,7.5   v19.01l-16.463-9.505c-3.587-2.072-8.174-0.842-10.245,2.745c-2.071,3.587-0.842,8.174,2.745,10.245L264.5,211.5l-16.463,9.505   c-3.587,2.071-4.816,6.658-2.745,10.245c1.389,2.406,3.91,3.751,6.502,3.751c1.272,0,2.562-0.324,3.743-1.006L272,224.49v19.01   c0,4.142,3.358,7.5,7.5,7.5s7.5-3.358,7.5-7.5v-19.01l16.463,9.505c1.181,0.682,2.471,1.006,3.743,1.006   c2.592,0,5.113-1.345,6.502-3.751c2.071-3.587,0.842-8.174-2.745-10.245L294.5,211.5l16.463-9.505   C314.55,199.924,315.779,195.337,313.708,191.75z" fill="#f5f5f5"/><path d="M415.5,284c-12.958,0-23.5,10.542-23.5,23.5c0,10.336,6.71,19.128,16,22.266v9.734c0,4.142,3.358,7.5,7.5,7.5   s7.5-3.358,7.5-7.5v-9.734c9.29-3.138,16-11.93,16-22.266C439,294.542,428.458,284,415.5,284z M415.5,316   c-4.687,0-8.5-3.813-8.5-8.5s3.813-8.5,8.5-8.5s8.5,3.813,8.5,8.5S420.187,316,415.5,316z" fill="#f5f5f5"/></g><g transform="matrix(0.12143430452155171 0.015179287771504195 -0.015179287771504195 0.12143430452155171 230.85184299684545 111.0952269456068)" id="L1_99"><path d="M504.117,44.824l-33.941-33.941C465.737,6.445,459.836,4,453.559,4c-6.277,0-12.179,2.445-16.617,6.883L233.913,213.913   c-0.885,0.885-1.535,1.978-1.89,3.179l-23.716,80.284c-0.778,2.635-0.053,5.485,1.89,7.428c1.427,1.427,3.343,2.197,5.304,2.197   c0.709,0,1.424-0.101,2.124-0.307l80.284-23.716c1.201-0.355,2.293-1.004,3.179-1.89L504.117,78.058   C508.555,73.62,511,67.718,511,61.441C511,55.164,508.555,49.263,504.117,44.824z M295.784,265.177L278.106,247.5L451.5,74.106   l17.678,17.678L295.784,265.177z M267.5,236.894l-17.677-17.677L423.216,45.822L440.894,63.5L267.5,236.894z M242.834,233.441   l38.725,38.725l-54.96,16.235L242.834,233.441z M493.51,67.452l-13.726,13.726l-45.962-45.962l13.726-13.726   c3.315-3.315,8.707-3.314,12.021,0l33.941,33.941C496.824,58.745,496.824,64.137,493.51,67.452z" fill="#f5f5f5"/><path d="M116.803,326.197c-2.929-2.929-7.678-2.929-10.606,0l-56,56c-2.929,2.929-2.929,7.678,0,10.606l56,56   c1.464,1.464,3.384,2.197,5.303,2.197s3.839-0.732,5.303-2.197c2.929-2.929,2.929-7.678,0-10.606L66.106,387.5l50.697-50.697   C119.732,333.875,119.732,329.125,116.803,326.197z" fill="#f5f5f5"/><path d="M202.197,448.803c1.464,1.464,3.384,2.197,5.303,2.197s3.839-0.732,5.303-2.197l56-56c2.929-2.929,2.929-7.678,0-10.606   l-56-56c-2.929-2.929-7.678-2.929-10.606,0c-2.929,2.929-2.929,7.678,0,10.606l50.697,50.697l-50.697,50.697   C199.268,441.125,199.268,445.875,202.197,448.803z" fill="#f5f5f5"/><path d="M311.5,300c-4.142,0-7.5,3.358-7.5,7.5v160c0,13.509-10.991,24.5-24.5,24.5h-240C25.991,492,15,481.009,15,467.5v-160   c0-13.509,10.991-24.5,24.5-24.5h144c4.142,0,7.5-3.358,7.5-7.5s-3.358-7.5-7.5-7.5h-144C17.72,268,0,285.72,0,307.5v160   C0,489.28,17.72,507,39.5,507h240c21.78,0,39.5-17.72,39.5-39.5v-160C319,303.358,315.642,300,311.5,300z" fill="#f5f5f5"/><path d="M122.2,406.2c-1.4,1.39-2.2,3.33-2.2,5.3c0,1.97,0.8,3.91,2.2,5.3c1.39,1.4,3.33,2.2,5.3,2.2c1.97,0,3.91-0.8,5.3-2.2   c1.4-1.39,2.2-3.33,2.2-5.3c0-1.97-0.8-3.91-2.2-5.3c-1.39-1.4-3.33-2.2-5.3-2.2C125.53,404,123.59,404.8,122.2,406.2z" fill="#f5f5f5"/><path d="M184,411.5c0,1.97,0.8,3.91,2.2,5.3c1.39,1.4,3.33,2.2,5.3,2.2c1.97,0,3.91-0.8,5.3-2.2c1.4-1.39,2.2-3.33,2.2-5.3   c0-1.97-0.8-3.91-2.2-5.3c-1.39-1.4-3.33-2.2-5.3-2.2c-1.97,0-3.91,0.8-5.3,2.2C184.8,407.59,184,409.53,184,411.5z" fill="#f5f5f5"/><path d="M154.2,406.2c-1.4,1.39-2.2,3.33-2.2,5.3c0,1.97,0.8,3.91,2.2,5.3c1.39,1.4,3.33,2.2,5.3,2.2c1.97,0,3.91-0.8,5.3-2.2   c1.4-1.39,2.2-3.33,2.2-5.3c0-1.97-0.8-3.91-2.2-5.3c-1.39-1.4-3.33-2.2-5.3-2.2C157.53,404,155.59,404.8,154.2,406.2z" fill="#f5f5f5"/></g><g transform="matrix(0.12964251799156165 -0.036179306594157586 0.036179306594157586 0.12964251799156165 -36.36747640516869 234.12014926444584)" id="L1_100"><path d="M343.5,292h-176c-21.78,0-39.5,17.72-39.5,39.5v96c0,21.78,17.72,39.5,39.5,39.5h176c21.78,0,39.5-17.72,39.5-39.5v-96   C383,309.72,365.28,292,343.5,292z M368,427.5c0,13.509-10.991,24.5-24.5,24.5h-176c-13.509,0-24.5-10.991-24.5-24.5v-96   c0-13.509,10.991-24.5,24.5-24.5h176c13.509,0,24.5,10.991,24.5,24.5V427.5z" fill="#f0f0f0"/><path d="M220.803,334.197c-2.929-2.929-7.678-2.929-10.606,0l-40,40c-2.929,2.929-2.929,7.678,0,10.606l40,40   c1.464,1.464,3.384,2.197,5.303,2.197s3.839-0.732,5.303-2.197c2.929-2.929,2.929-7.678,0-10.606L186.106,379.5l34.697-34.697   C223.732,341.875,223.732,337.125,220.803,334.197z" fill="#f0f0f0"/><path d="M300.803,334.197c-2.929-2.929-7.678-2.929-10.606,0c-2.929,2.929-2.929,7.678,0,10.606l34.697,34.697l-34.697,34.697   c-2.929,2.929-2.929,7.678,0,10.606c1.464,1.464,3.384,2.197,5.303,2.197s3.839-0.732,5.303-2.197l40-40   c2.929-2.929,2.929-7.678,0-10.606L300.803,334.197z" fill="#f0f0f0"/><path d="M255.5,388c-1.97,0-3.91,0.8-5.3,2.2c-1.4,1.39-2.2,3.33-2.2,5.3c0,1.97,0.8,3.91,2.2,5.3c1.39,1.4,3.33,2.2,5.3,2.2   c1.97,0,3.91-0.8,5.3-2.2c1.4-1.39,2.2-3.33,2.2-5.3c0-1.98-0.8-3.91-2.2-5.3C259.41,388.8,257.47,388,255.5,388z" fill="#f0f0f0"/><path d="M279.5,388c-1.97,0-3.91,0.8-5.3,2.2c-1.4,1.39-2.2,3.33-2.2,5.3c0,1.97,0.8,3.91,2.2,5.3c1.39,1.4,3.33,2.2,5.3,2.2   c1.97,0,3.91-0.8,5.3-2.2c1.4-1.39,2.2-3.33,2.2-5.3c0-1.97-0.8-3.91-2.2-5.3C283.41,388.8,281.47,388,279.5,388z" fill="#f0f0f0"/><path d="M231.5,388c-1.97,0-3.91,0.8-5.3,2.2c-1.4,1.39-2.2,3.33-2.2,5.3c0,1.97,0.8,3.91,2.2,5.3c1.39,1.4,3.33,2.2,5.3,2.2   c1.97,0,3.91-0.8,5.3-2.2c1.4-1.39,2.2-3.33,2.2-5.3c0-1.97-0.8-3.91-2.2-5.3C235.41,388.8,233.48,388,231.5,388z" fill="#f0f0f0"/><path d="M493.609,207.138c-9.949-13.301-23.718-23.639-39.172-29.504c-2.354-26.829-14.217-51.7-33.736-70.504   C399.864,87.055,372.447,76,343.5,76c-9.62,0-19.168,1.238-28.447,3.684C289.97,56.639,257.631,44,223.5,44   c-27.572,0-54.102,8.246-76.719,23.846c-20.784,14.335-37.015,33.94-47.164,56.907C43.39,130.734,0,178.501,0,235.5   c0,28.288,10.609,55.263,29.874,75.957c19.163,20.585,45.109,33.092,73.059,35.218c4.13,0.312,7.733-2.779,8.047-6.91   c0.314-4.13-2.779-7.733-6.91-8.047c-24.179-1.839-46.63-12.665-63.217-30.482C24.181,283.328,15,259.982,15,235.5   c0-50.68,39.642-92.925,90.248-96.176c2.882-0.185,5.402-2.008,6.479-4.688c8.871-22.075,23.938-40.9,43.571-54.443   C175.399,66.329,198.983,59,223.5,59c31.649,0,61.569,12.227,84.248,34.427c1.962,1.921,4.818,2.614,7.444,1.812   C324.369,92.426,333.894,91,343.5,91c51.814,0,94.107,40.591,96.284,92.409c0.133,3.166,2.242,5.906,5.267,6.847   C475.525,199.729,496,227.556,496,259.5c0,18.1-6.707,35.429-18.885,48.797c-12.099,13.281-28.562,21.568-46.356,23.335   c-0.587,0.059-1.153,0.184-1.69,0.367h-21.571c-4.142,0-7.5,3.358-7.5,7.5s3.358,7.5,7.5,7.5H431.5c1.15,0,2.24-0.259,3.214-0.722   c20.538-2.631,39.452-12.47,53.49-27.879C502.904,302.262,511,281.345,511,259.5C511,240.455,504.986,222.349,493.609,207.138z" fill="#f0f0f0"/><path d="M62.985,181.923c-3.08-2.77-7.822-2.52-10.592,0.559C39.243,197.099,32,215.927,32,235.5   c0,15.741,4.665,31.01,13.49,44.154c1.447,2.156,3.818,3.32,6.233,3.32c1.438,0,2.891-0.413,4.174-1.274   c3.439-2.309,4.355-6.968,2.046-10.407C50.784,260.63,47,248.252,47,235.5c0-15.862,5.875-31.127,16.544-42.985   C66.314,189.436,66.064,184.693,62.985,181.923z" fill="#f0f0f0"/><path d="M275.105,107.646c1.328,0.959,2.864,1.42,4.385,1.42c2.327,0,4.62-1.079,6.086-3.109c2.425-3.358,1.669-8.046-1.688-10.472   C266.24,82.738,245.357,76,223.5,76c-4.142,0-7.5,3.358-7.5,7.5s3.358,7.5,7.5,7.5C242.184,91,260.029,96.756,275.105,107.646z" fill="#f0f0f0"/><path d="M102.677,156.609c-6.03,0.667-11.979,2.028-17.68,4.046c-3.905,1.382-5.95,5.668-4.568,9.573c1.089,3.078,3.982,5,7.07,5   c0.83,0,1.675-0.139,2.502-0.432c4.617-1.634,9.436-2.737,14.324-3.277c4.117-0.456,7.085-4.162,6.63-8.279   C110.501,159.122,106.802,156.158,102.677,156.609z" fill="#f0f0f0"/><path d="M357.848,124.593c0.557,0.126,1.114,0.186,1.662,0.186c3.427,0,6.521-2.364,7.309-5.847c0.914-4.04-1.621-8.056-5.661-8.97   C355.401,108.66,349.46,108,343.5,108c-4.142,0-7.5,3.358-7.5,7.5s3.358,7.5,7.5,7.5C348.349,123,353.176,123.536,357.848,124.593z   " fill="#f0f0f0"/><path d="M427.793,217.456c1.168,0.662,2.438,0.977,3.691,0.977c2.613,0,5.151-1.368,6.532-3.803   c2.042-3.603,0.777-8.18-2.827-10.223c-7.401-4.195-12.034-11.778-12.391-20.284c-0.958-22.817-11.629-44.116-29.277-58.436   c-3.216-2.61-7.94-2.119-10.549,1.098c-2.61,3.216-2.119,7.939,1.098,10.549c14.31,11.612,22.963,28.895,23.742,47.418   C408.388,198.464,415.857,210.69,427.793,217.456z" fill="#f0f0f0"/></g><g transform="matrix(0.11753301231537364 0.013992025665766787 -0.013992025665766787 0.11753301231537364 -25.454722312491967 45.395352572301206)" id="L1_101"><path d="M487.5,51.999h-464c-12.958,0-23.5,10.542-23.5,23.5v304c0,12.958,10.542,23.5,23.5,23.5h158.057l-11.714,41H135.5   c-4.142,0-7.5,3.358-7.5,7.5s3.358,7.5,7.5,7.5h39.976c0.009,0,0.019,0.002,0.028,0.002c0.008,0,0.016-0.002,0.024-0.002h159.944   c0.008,0,0.016,0.002,0.024,0.002c0.009,0,0.019-0.002,0.028-0.002H375.5c4.142,0,7.5-3.358,7.5-7.5s-3.358-7.5-7.5-7.5h-34.343   l-11.714-41H487.5c12.958,0,23.5-10.542,23.5-23.5v-304C511,62.541,500.458,51.999,487.5,51.999z M325.557,443.999H185.443   l11.714-41h116.686L325.557,443.999z M496,379.499c0,4.687-3.813,8.5-8.5,8.5H319.677c-0.001,0-0.002,0-0.003,0H23.5   c-4.687,0-8.5-3.813-8.5-8.5v-304c0-4.687,3.813-8.5,8.5-8.5h464c4.687,0,8.5,3.813,8.5,8.5V379.499z" fill="#f2f2f2"/><path d="M471.5,83.999h-432c-4.142,0-7.5,3.358-7.5,7.5v272c0,4.142,3.358,7.5,7.5,7.5h432c4.142,0,7.5-3.358,7.5-7.5v-272   C479,87.357,475.642,83.999,471.5,83.999z M464,98.999v49H47v-49H464z M47,162.999h105v193H47V162.999z M167,355.999v-193h297v193   H167z" fill="#f2f2f2"/><path d="M71.5,130.999h24c4.142,0,7.5-3.358,7.5-7.5s-3.358-7.5-7.5-7.5h-24c-4.142,0-7.5,3.358-7.5,7.5   S67.358,130.999,71.5,130.999z" fill="#f2f2f2"/><path d="M127.5,130.999h24c4.142,0,7.5-3.358,7.5-7.5s-3.358-7.5-7.5-7.5h-24c-4.142,0-7.5,3.358-7.5,7.5   S123.358,130.999,127.5,130.999z" fill="#f2f2f2"/><path d="M183.5,130.999h24c4.142,0,7.5-3.358,7.5-7.5s-3.358-7.5-7.5-7.5h-24c-4.142,0-7.5,3.358-7.5,7.5   S179.358,130.999,183.5,130.999z" fill="#f2f2f2"/><path d="M239.5,130.999h24c4.142,0,7.5-3.358,7.5-7.5s-3.358-7.5-7.5-7.5h-24c-4.142,0-7.5,3.358-7.5,7.5   S235.358,130.999,239.5,130.999z" fill="#f2f2f2"/><path d="M295.5,130.999h80c4.142,0,7.5-3.358,7.5-7.5s-3.358-7.5-7.5-7.5h-80c-4.142,0-7.5,3.358-7.5,7.5   S291.358,130.999,295.5,130.999z" fill="#f2f2f2"/><path d="M439.5,130.999c1.97,0,3.91-0.8,5.3-2.2c1.4-1.4,2.2-3.33,2.2-5.3c0-1.97-0.8-3.91-2.2-5.3c-1.39-1.4-3.32-2.2-5.3-2.2   s-3.91,0.8-5.3,2.2c-1.4,1.39-2.2,3.33-2.2,5.3c0,1.97,0.8,3.91,2.2,5.3C435.59,130.199,437.53,130.999,439.5,130.999z" fill="#f2f2f2"/><path d="M407.5,130.999c1.97,0,3.91-0.8,5.3-2.2c1.4-1.39,2.2-3.33,2.2-5.3c0-1.98-0.8-3.91-2.2-5.3c-1.39-1.4-3.33-2.2-5.3-2.2   c-1.97,0-3.91,0.8-5.3,2.2c-1.4,1.39-2.2,3.32-2.2,5.3c0,1.97,0.8,3.91,2.2,5.3C403.59,130.199,405.53,130.999,407.5,130.999z" fill="#f2f2f2"/><path d="M71.5,194.999h56c4.142,0,7.5-3.358,7.5-7.5s-3.358-7.5-7.5-7.5h-56c-4.142,0-7.5,3.358-7.5,7.5   S67.358,194.999,71.5,194.999z" fill="#f2f2f2"/><path d="M191.5,194.999h56c4.142,0,7.5-3.358,7.5-7.5s-3.358-7.5-7.5-7.5h-56c-4.142,0-7.5,3.358-7.5,7.5   S187.358,194.999,191.5,194.999z" fill="#f2f2f2"/><path d="M279.5,194.999h32c4.142,0,7.5-3.358,7.5-7.5s-3.358-7.5-7.5-7.5h-32c-4.142,0-7.5,3.358-7.5,7.5   S275.358,194.999,279.5,194.999z" fill="#f2f2f2"/><path d="M191.5,226.999h56c4.142,0,7.5-3.358,7.5-7.5s-3.358-7.5-7.5-7.5h-56c-4.142,0-7.5,3.358-7.5,7.5   S187.358,226.999,191.5,226.999z" fill="#f2f2f2"/><path d="M351.5,243.999h-136c-4.142,0-7.5,3.358-7.5,7.5s3.358,7.5,7.5,7.5h136c4.142,0,7.5-3.358,7.5-7.5   S355.642,243.999,351.5,243.999z" fill="#f2f2f2"/><path d="M407.5,243.999h-24c-4.142,0-7.5,3.358-7.5,7.5s3.358,7.5,7.5,7.5h24c4.142,0,7.5-3.358,7.5-7.5   S411.642,243.999,407.5,243.999z" fill="#f2f2f2"/><path d="M311.5,307.999h-32c-4.142,0-7.5,3.358-7.5,7.5s3.358,7.5,7.5,7.5h32c4.142,0,7.5-3.358,7.5-7.5   S315.642,307.999,311.5,307.999z" fill="#f2f2f2"/><path d="M279.5,226.999h32c4.142,0,7.5-3.358,7.5-7.5s-3.358-7.5-7.5-7.5h-32c-4.142,0-7.5,3.358-7.5,7.5   S275.358,226.999,279.5,226.999z" fill="#f2f2f2"/><path d="M247.5,275.999h-56c-4.142,0-7.5,3.358-7.5,7.5s3.358,7.5,7.5,7.5h56c4.142,0,7.5-3.358,7.5-7.5   S251.642,275.999,247.5,275.999z" fill="#f2f2f2"/><path d="M311.5,275.999h-32c-4.142,0-7.5,3.358-7.5,7.5s3.358,7.5,7.5,7.5h32c4.142,0,7.5-3.358,7.5-7.5   S315.642,275.999,311.5,275.999z" fill="#f2f2f2"/><path d="M127.5,275.999h-56c-4.142,0-7.5,3.358-7.5,7.5s3.358,7.5,7.5,7.5h56c4.142,0,7.5-3.358,7.5-7.5   S131.642,275.999,127.5,275.999z" fill="#f2f2f2"/><path d="M127.5,211.999h-32c-4.142,0-7.5,3.358-7.5,7.5s3.358,7.5,7.5,7.5h32c4.142,0,7.5-3.358,7.5-7.5   S131.642,211.999,127.5,211.999z" fill="#f2f2f2"/><path d="M127.5,243.999h-32c-4.142,0-7.5,3.358-7.5,7.5s3.358,7.5,7.5,7.5h32c4.142,0,7.5-3.358,7.5-7.5   S131.642,243.999,127.5,243.999z" fill="#f2f2f2"/><path d="M127.5,307.999h-32c-4.142,0-7.5,3.358-7.5,7.5s3.358,7.5,7.5,7.5h32c4.142,0,7.5-3.358,7.5-7.5   S131.642,307.999,127.5,307.999z" fill="#f2f2f2"/></g><g transform="matrix(0.09237393045421365 0.027168801996763352 -0.027168801996763352 0.09237393045421365 55.34008945560403 146.45683163525797)" id="L1_102"><path d="M39.5,103c1.97,0,3.91-0.8,5.3-2.2c1.4-1.39,2.2-3.32,2.2-5.3c0-1.97-0.8-3.91-2.2-5.3c-1.39-1.4-3.33-2.2-5.3-2.2   c-1.97,0-3.91,0.8-5.3,2.2c-1.4,1.39-2.2,3.33-2.2,5.3s0.8,3.91,2.2,5.3C35.59,102.2,37.53,103,39.5,103z" fill="#f5f5f5"/><path d="M63.5,103c1.97,0,3.91-0.8,5.3-2.2c1.4-1.39,2.2-3.33,2.2-5.3s-0.8-3.91-2.2-5.3c-1.39-1.4-3.33-2.2-5.3-2.2   c-1.97,0-3.91,0.8-5.3,2.2c-1.4,1.39-2.2,3.33-2.2,5.3s0.8,3.91,2.2,5.3C59.59,102.2,61.53,103,63.5,103z" fill="#f5f5f5"/><path d="M87.5,103c1.97,0,3.91-0.8,5.3-2.2c1.4-1.39,2.2-3.33,2.2-5.3s-0.8-3.91-2.2-5.3c-1.39-1.4-3.33-2.2-5.3-2.2   c-1.98,0-3.91,0.8-5.3,2.2c-1.4,1.39-2.2,3.33-2.2,5.3s0.8,3.91,2.2,5.3C83.59,102.2,85.53,103,87.5,103z" fill="#f5f5f5"/><path d="M119.5,103h304c4.142,0,7.5-3.358,7.5-7.5s-3.358-7.5-7.5-7.5h-304c-4.142,0-7.5,3.358-7.5,7.5S115.358,103,119.5,103z" fill="#f5f5f5"/><path d="M455.5,103h16c4.142,0,7.5-3.358,7.5-7.5s-3.358-7.5-7.5-7.5h-16c-4.142,0-7.5,3.358-7.5,7.5S451.358,103,455.5,103z" fill="#f5f5f5"/><path d="M223.5,168h-160c-8.547,0-15.5,6.953-15.5,15.5v32c0,8.547,6.953,15.5,15.5,15.5h160c8.547,0,15.5-6.953,15.5-15.5v-32   C239,174.953,232.047,168,223.5,168z M224,215.5c0,0.275-0.224,0.5-0.5,0.5h-160c-0.276,0-0.5-0.225-0.5-0.5v-32   c0-0.275,0.224-0.5,0.5-0.5h160c0.276,0,0.5,0.225,0.5,0.5V215.5z" fill="#f5f5f5"/><path d="M455.5,192h-49.734c-3.138-9.29-11.93-16-22.266-16s-19.128,6.71-22.266,16H343.5c-4.142,0-7.5,3.358-7.5,7.5   s3.358,7.5,7.5,7.5h17.734c3.138,9.29,11.93,16,22.266,16s19.128-6.71,22.266-16H455.5c4.142,0,7.5-3.358,7.5-7.5   S459.642,192,455.5,192z M383.5,208c-4.687,0-8.5-3.813-8.5-8.5s3.813-8.5,8.5-8.5s8.5,3.813,8.5,8.5S388.187,208,383.5,208z" fill="#f5f5f5"/><path d="M287.5,168c-17.369,0-31.5,14.131-31.5,31.5s14.131,31.5,31.5,31.5s31.5-14.131,31.5-31.5S304.869,168,287.5,168z    M287.5,216c-9.098,0-16.5-7.402-16.5-16.5s7.402-16.5,16.5-16.5s16.5,7.402,16.5,16.5S296.598,216,287.5,216z" fill="#f5f5f5"/><path d="M223.5,256h-160c-8.547,0-15.5,6.953-15.5,15.5v32c0,8.547,6.953,15.5,15.5,15.5h160c8.547,0,15.5-6.953,15.5-15.5v-32   C239,262.953,232.047,256,223.5,256z M224,303.5c0,0.275-0.224,0.5-0.5,0.5h-160c-0.276,0-0.5-0.225-0.5-0.5v-32   c0-0.275,0.224-0.5,0.5-0.5h160c0.276,0,0.5,0.225,0.5,0.5V303.5z" fill="#f5f5f5"/><path d="M455.5,280h-9.738c-3.138-9.29-11.93-16-22.266-16s-19.128,6.71-22.266,16H343.5c-4.142,0-7.5,3.358-7.5,7.5   s3.358,7.5,7.5,7.5h57.731c3.138,9.29,11.93,16,22.266,16s19.128-6.71,22.266-16h9.738c4.142,0,7.5-3.358,7.5-7.5   S459.642,280,455.5,280z M423.497,296c-4.687,0-8.5-3.813-8.5-8.5s3.813-8.5,8.5-8.5s8.5,3.813,8.5,8.5S428.184,296,423.497,296z" fill="#f5f5f5"/><path d="M287.5,256c-17.369,0-31.5,14.131-31.5,31.5s14.131,31.5,31.5,31.5s31.5-14.131,31.5-31.5S304.869,256,287.5,256z    M287.5,304c-9.098,0-16.5-7.402-16.5-16.5s7.402-16.5,16.5-16.5s16.5,7.402,16.5,16.5S296.598,304,287.5,304z" fill="#f5f5f5"/><path d="M223.5,344h-160c-8.547,0-15.5,6.953-15.5,15.5v32c0,8.547,6.953,15.5,15.5,15.5h160c8.547,0,15.5-6.953,15.5-15.5v-32   C239,350.953,232.047,344,223.5,344z M224,391.5c0,0.275-0.224,0.5-0.5,0.5h-160c-0.276,0-0.5-0.225-0.5-0.5v-32   c0-0.275,0.224-0.5,0.5-0.5h160c0.276,0,0.5,0.225,0.5,0.5V391.5z" fill="#f5f5f5"/><path d="M455.5,368h-41.738c-3.138-9.29-11.93-16-22.266-16s-19.128,6.71-22.266,16H343.5c-4.142,0-7.5,3.358-7.5,7.5   s3.358,7.5,7.5,7.5h25.731c3.138,9.29,11.93,16,22.266,16s19.128-6.71,22.266-16H455.5c4.142,0,7.5-3.358,7.5-7.5   S459.642,368,455.5,368z M391.497,384c-4.687,0-8.5-3.813-8.5-8.5s3.813-8.5,8.5-8.5s8.5,3.813,8.5,8.5S396.184,384,391.497,384z" fill="#f5f5f5"/><path d="M287.5,344c-17.369,0-31.5,14.131-31.5,31.5s14.131,31.5,31.5,31.5s31.5-14.131,31.5-31.5S304.869,344,287.5,344z    M287.5,392c-9.098,0-16.5-7.402-16.5-16.5s7.402-16.5,16.5-16.5s16.5,7.402,16.5,16.5S296.598,392,287.5,392z" fill="#f5f5f5"/><path d="M471.5,56h-432C17.72,56,0,73.72,0,95.5v320C0,437.28,17.72,455,39.5,455h432c21.78,0,39.5-17.72,39.5-39.5v-320   C511,73.72,493.28,56,471.5,56z M39.5,71h432c13.509,0,24.5,10.991,24.5,24.5V120H15V95.5C15,81.991,25.991,71,39.5,71z M471.5,440   h-432C25.991,440,15,429.009,15,415.5V135h481v280.5C496,429.009,485.009,440,471.5,440z" fill="#f5f5f5"/></g><g transform="matrix(1.2106703519821167 0 0 1.2106703519821167 123.85349876800854 61.89716111298776)" id="L1_103"><path d="M27.557,12c-3.859,0-7,3.141-7,7s3.141,7,7,7s7-3.141,7-7S31.416,12,27.557,12z M27.557,24c-2.757,0-5-2.243-5-5   s2.243-5,5-5s5,2.243,5,5S30.314,24,27.557,24z" fill="#f5f5f5"/><path d="M40.94,5.617C37.318,1.995,32.502,0,27.38,0c-5.123,0-9.938,1.995-13.56,5.617c-6.703,6.702-7.536,19.312-1.804,26.952   L27.38,54.757L42.721,32.6C48.476,24.929,47.643,12.319,40.94,5.617z M41.099,31.431L27.38,51.243L13.639,31.4   C8.44,24.468,9.185,13.08,15.235,7.031C18.479,3.787,22.792,2,27.38,2s8.901,1.787,12.146,5.031   C45.576,13.08,46.321,24.468,41.099,31.431z" fill="#f5f5f5"/></g><g transform="matrix(0.07403723150491714 0 0 0.07403723150491714 139.08348712697625 259.08348712697625)" id="L1_104"><path d="M39.5,103c1.97,0,3.91-0.8,5.3-2.2c1.4-1.39,2.2-3.33,2.2-5.3s-0.8-3.91-2.2-5.3c-1.39-1.4-3.32-2.2-5.3-2.2   s-3.91,0.8-5.3,2.2c-1.4,1.39-2.2,3.33-2.2,5.3s0.8,3.91,2.2,5.3C35.59,102.2,37.53,103,39.5,103z" fill="#ededed"/><path d="M63.5,103c1.98,0,3.91-0.8,5.3-2.2c1.4-1.39,2.2-3.33,2.2-5.3s-0.8-3.91-2.2-5.3c-1.39-1.4-3.33-2.2-5.3-2.2   c-1.97,0-3.91,0.8-5.3,2.2c-1.4,1.39-2.2,3.33-2.2,5.3s0.8,3.91,2.2,5.3C59.59,102.2,61.53,103,63.5,103z" fill="#ededed"/><path d="M87.5,103c1.97,0,3.91-0.8,5.3-2.2c1.4-1.39,2.2-3.33,2.2-5.3s-0.8-3.91-2.2-5.3c-1.39-1.4-3.33-2.2-5.3-2.2   c-1.97,0-3.91,0.8-5.3,2.2c-1.4,1.39-2.2,3.33-2.2,5.3s0.8,3.91,2.2,5.3C83.59,102.2,85.53,103,87.5,103z" fill="#ededed"/><path d="M119.5,103h304c4.142,0,7.5-3.358,7.5-7.5s-3.358-7.5-7.5-7.5h-304c-4.142,0-7.5,3.358-7.5,7.5S115.358,103,119.5,103z" fill="#ededed"/><path d="M455.5,103h16c4.142,0,7.5-3.358,7.5-7.5s-3.358-7.5-7.5-7.5h-16c-4.142,0-7.5,3.358-7.5,7.5S451.358,103,455.5,103z" fill="#ededed"/><path d="M439.5,168h-144c-12.958,0-23.5,10.542-23.5,23.5v0.5h-8.5c-12.958,0-23.5,10.542-23.5,23.5V280h-17v-24.5   c0-12.958-10.542-23.5-23.5-23.5h-128C58.542,232,48,242.542,48,255.5v64c0,12.958,10.542,23.5,23.5,23.5h128   c12.958,0,23.5-10.542,23.5-23.5V295h17v64.5c0,12.958,10.542,23.5,23.5,23.5h8.5v0.5c0,12.958,10.542,23.5,23.5,23.5h144   c12.958,0,23.5-10.542,23.5-23.5v-16c0-12.958-10.542-23.5-23.5-23.5h-144c-12.958,0-23.5,10.542-23.5,23.5v0.5h-8.5   c-4.687,0-8.5-3.813-8.5-8.5V295h17v0.5c0,12.958,10.542,23.5,23.5,23.5h144c12.958,0,23.5-10.542,23.5-23.5v-16   c0-12.958-10.542-23.5-23.5-23.5h-144c-12.958,0-23.5,10.542-23.5,23.5v0.5h-17v-64.5c0-4.687,3.813-8.5,8.5-8.5h8.5v0.5   c0,12.958,10.542,23.5,23.5,23.5h144c12.958,0,23.5-10.542,23.5-23.5v-16C463,178.542,452.458,168,439.5,168z M208,319.5   c0,4.687-3.813,8.5-8.5,8.5h-128c-4.687,0-8.5-3.813-8.5-8.5v-64c0-4.687,3.813-8.5,8.5-8.5h128c4.687,0,8.5,3.813,8.5,8.5V319.5z    M287,367.5c0-4.687,3.813-8.5,8.5-8.5h144c4.687,0,8.5,3.813,8.5,8.5v16c0,4.687-3.813,8.5-8.5,8.5h-144   c-4.687,0-8.5-3.813-8.5-8.5V367.5z M287,279.5c0-4.687,3.813-8.5,8.5-8.5h144c4.687,0,8.5,3.813,8.5,8.5v16   c0,4.687-3.813,8.5-8.5,8.5h-144c-4.687,0-8.5-3.813-8.5-8.5V279.5z M448,207.5c0,4.687-3.813,8.5-8.5,8.5h-144   c-4.687,0-8.5-3.813-8.5-8.5v-16c0-4.687,3.813-8.5,8.5-8.5h144c4.687,0,8.5,3.813,8.5,8.5V207.5z" fill="#ededed"/><path d="M471.5,56h-432C17.72,56,0,73.72,0,95.5v320C0,437.28,17.72,455,39.5,455h432c21.78,0,39.5-17.72,39.5-39.5v-320   C511,73.72,493.28,56,471.5,56z M39.5,71h432c13.509,0,24.5,10.991,24.5,24.5V120H15V95.5C15,81.991,25.991,71,39.5,71z M471.5,440   h-432C25.991,440,15,429.009,15,415.5V135h481v280.5C496,429.009,485.009,440,471.5,440z" fill="#ededed"/></g><g transform="matrix(0.8808406591415405 0 0 0.8808406591415405 187.32222217893946 27.1330087184906)" id="L1_105"><path d="M38.976,5.122h-0.415V4.415c0-1.492-1.212-2.706-2.635-2.706c-0.001,0-0.002,0-0.004,0L11.098,0   C9.604,0,8.39,1.215,8.39,2.707v2.415H7.976c-1.654,0-3,1.346-3,3v3.829c0,1.654,1.346,3,3,3H8.07l2.904,29.293   c0,1.492,1.214,2.707,2.708,2.707h19.634c0.373,0,0.729-0.076,1.053-0.212c0.971-0.407,1.653-1.352,1.65-2.397l2.909-29.392h0.049   c1.654,0,3-1.346,3-3V8.122C41.976,6.468,40.63,5.122,38.976,5.122z M10.39,2.707c0-0.39,0.317-0.707,0.639-0.709l24.825,1.709   c0.39,0,0.708,0.317,0.708,0.708v0.707H10.39V2.707z M36.103,22.904l-5.369,0.958c-1.817-2.121-4.417-3.326-7.225-3.326   c-2.809,0-5.409,1.205-7.226,3.327l-5.389-0.96l-0.811-7.952h26.832L36.103,22.904z M35.928,24.967l-0.776,7.856l-5.252-0.967   l-0.372,0.494c-1.442,1.917-3.636,3.017-6.018,3.017c-2.383,0-4.577-1.1-6.019-3.017l-0.372-0.493l-5.27,0.967l-0.778-7.857   l6.05,1.076l0.37-0.49c1.442-1.917,3.636-3.017,6.019-3.017c2.382,0,4.576,1.1,6.018,3.017l0.37,0.491L35.928,24.967z    M33.315,44.951H13.681c-0.096,0-0.188-0.02-0.272-0.058c-0.253-0.114-0.436-0.386-0.44-0.748l-0.013-0.13l-0.897-9.198   l4.226-0.775c1.817,2.12,4.416,3.324,7.224,3.324c2.807,0,5.406-1.204,7.223-3.323l4.207,0.774l-0.916,9.427   C34.022,44.627,33.699,44.951,33.315,44.951z M39.976,11.951c0,0.552-0.449,1-1,1h-31c-0.551,0-1-0.448-1-1V8.122   c0-0.552,0.449-1,1-1H8.39h30.171h0.415c0.551,0,1,0.448,1,1V11.951z" fill="#f2f2f2"/><path d="M23.476,24c-3.033,0-5.5,2.243-5.5,5s2.467,5,5.5,5s5.5-2.243,5.5-5S26.508,24,23.476,24z M23.476,32   c-1.93,0-3.5-1.346-3.5-3s1.57-3,3.5-3s3.5,1.346,3.5,3S25.405,32,23.476,32z" fill="#f2f2f2"/></g></defs><g fi:class="KUsePattern"><pattern id="pattern_L1_87" width="350" height="350" patternUnits="userSpaceOnUse"><use xlink:href="#L1_87" x="-350" y="-350"/><use xlink:href="#L1_87" x="0" y="-350"/><use xlink:href="#L1_87" x="350" y="-350"/><use xlink:href="#L1_87" x="-350" y="0"/><use xlink:href="#L1_87" x="0" y="0"/><use xlink:href="#L1_87" x="350" y="0"/><use xlink:href="#L1_87" x="-350" y="350"/><use xlink:href="#L1_87" x="0" y="350"/><use xlink:href="#L1_87" x="350" y="350"/></pattern><rect x="0" y="0" width="100%" height="100%" fill="url(#pattern_L1_87)"/></g><g fi:class="KUsePattern"><pattern id="pattern_L1_88" width="350" height="350" patternUnits="userSpaceOnUse"><use xlink:href="#L1_88" x="-350" y="-350"/><use xlink:href="#L1_88" x="0" y="-350"/><use xlink:href="#L1_88" x="350" y="-350"/><use xlink:href="#L1_88" x="-350" y="0"/><use xlink:href="#L1_88" x="0" y="0"/><use xlink:href="#L1_88" x="350" y="0"/><use xlink:href="#L1_88" x="-350" y="350"/><use xlink:href="#L1_88" x="0" y="350"/><use xlink:href="#L1_88" x="350" y="350"/></pattern><rect x="0" y="0" width="100%" height="100%" fill="url(#pattern_L1_88)"/></g><g fi:class="KUsePattern"><pattern id="pattern_L1_89" width="350" height="350" patternUnits="userSpaceOnUse"><use xlink:href="#L1_89" x="-350" y="-350"/><use xlink:href="#L1_89" x="0" y="-350"/><use xlink:href="#L1_89" x="350" y="-350"/><use xlink:href="#L1_89" x="-350" y="0"/><use xlink:href="#L1_89" x="0" y="0"/><use xlink:href="#L1_89" x="350" y="0"/><use xlink:href="#L1_89" x="-350" y="350"/><use xlink:href="#L1_89" x="0" y="350"/><use xlink:href="#L1_89" x="350" y="350"/></pattern><rect x="0" y="0" width="100%" height="100%" fill="url(#pattern_L1_89)"/></g><g fi:class="KUsePattern"><pattern id="pattern_L1_90" width="350" height="350" patternUnits="userSpaceOnUse"><use xlink:href="#L1_90" x="-350" y="-350"/><use xlink:href="#L1_90" x="0" y="-350"/><use xlink:href="#L1_90" x="350" y="-350"/><use xlink:href="#L1_90" x="-350" y="0"/><use xlink:href="#L1_90" x="0" y="0"/><use xlink:href="#L1_90" x="350" y="0"/><use xlink:href="#L1_90" x="-350" y="350"/><use xlink:href="#L1_90" x="0" y="350"/><use xlink:href="#L1_90" x="350" y="350"/></pattern><rect x="0" y="0" width="100%" height="100%" fill="url(#pattern_L1_90)"/></g><g fi:class="KUsePattern"><pattern id="pattern_L1_91" width="350" height="350" patternUnits="userSpaceOnUse"><use xlink:href="#L1_91" x="-350" y="-350"/><use xlink:href="#L1_91" x="0" y="-350"/><use xlink:href="#L1_91" x="350" y="-350"/><use xlink:href="#L1_91" x="-350" y="0"/><use xlink:href="#L1_91" x="0" y="0"/><use xlink:href="#L1_91" x="350" y="0"/><use xlink:href="#L1_91" x="-350" y="350"/><use xlink:href="#L1_91" x="0" y="350"/><use xlink:href="#L1_91" x="350" y="350"/></pattern><rect x="0" y="0" width="100%" height="100%" fill="url(#pattern_L1_91)"/></g><g fi:class="KUsePattern"><pattern id="pattern_L1_92" width="350" height="350" patternUnits="userSpaceOnUse"><use xlink:href="#L1_92" x="-350" y="-350"/><use xlink:href="#L1_92" x="0" y="-350"/><use xlink:href="#L1_92" x="350" y="-350"/><use xlink:href="#L1_92" x="-350" y="0"/><use xlink:href="#L1_92" x="0" y="0"/><use xlink:href="#L1_92" x="350" y="0"/><use xlink:href="#L1_92" x="-350" y="350"/><use xlink:href="#L1_92" x="0" y="350"/><use xlink:href="#L1_92" x="350" y="350"/></pattern><rect x="0" y="0" width="100%" height="100%" fill="url(#pattern_L1_92)"/></g><g fi:class="KUsePattern"><pattern id="pattern_L1_93" width="350" height="350" patternUnits="userSpaceOnUse"><use xlink:href="#L1_93" x="-350" y="-350"/><use xlink:href="#L1_93" x="0" y="-350"/><use xlink:href="#L1_93" x="350" y="-350"/><use xlink:href="#L1_93" x="-350" y="0"/><use xlink:href="#L1_93" x="0" y="0"/><use xlink:href="#L1_93" x="350" y="0"/><use xlink:href="#L1_93" x="-350" y="350"/><use xlink:href="#L1_93" x="0" y="350"/><use xlink:href="#L1_93" x="350" y="350"/></pattern><rect x="0" y="0" width="100%" height="100%" fill="url(#pattern_L1_93)"/></g><g fi:class="KUsePattern"><pattern id="pattern_L1_94" width="350" height="350" patternUnits="userSpaceOnUse"><use xlink:href="#L1_94" x="-350" y="-350"/><use xlink:href="#L1_94" x="0" y="-350"/><use xlink:href="#L1_94" x="350" y="-350"/><use xlink:href="#L1_94" x="-350" y="0"/><use xlink:href="#L1_94" x="0" y="0"/><use xlink:href="#L1_94" x="350" y="0"/><use xlink:href="#L1_94" x="-350" y="350"/><use xlink:href="#L1_94" x="0" y="350"/><use xlink:href="#L1_94" x="350" y="350"/></pattern><rect x="0" y="0" width="100%" height="100%" fill="url(#pattern_L1_94)"/></g><g fi:class="KUsePattern"><pattern id="pattern_L1_95" width="350" height="350" patternUnits="userSpaceOnUse"><use xlink:href="#L1_95" x="-350" y="-350"/><use xlink:href="#L1_95" x="0" y="-350"/><use xlink:href="#L1_95" x="350" y="-350"/><use xlink:href="#L1_95" x="-350" y="0"/><use xlink:href="#L1_95" x="0" y="0"/><use xlink:href="#L1_95" x="350" y="0"/><use xlink:href="#L1_95" x="-350" y="350"/><use xlink:href="#L1_95" x="0" y="350"/><use xlink:href="#L1_95" x="350" y="350"/></pattern><rect x="0" y="0" width="100%" height="100%" fill="url(#pattern_L1_95)"/></g><g fi:class="KUsePattern"><pattern id="pattern_L1_97" width="350" height="350" patternUnits="userSpaceOnUse"><use xlink:href="#L1_97" x="-350" y="-350"/><use xlink:href="#L1_97" x="0" y="-350"/><use xlink:href="#L1_97" x="350" y="-350"/><use xlink:href="#L1_97" x="-350" y="0"/><use xlink:href="#L1_97" x="0" y="0"/><use xlink:href="#L1_97" x="350" y="0"/><use xlink:href="#L1_97" x="-350" y="350"/><use xlink:href="#L1_97" x="0" y="350"/><use xlink:href="#L1_97" x="350" y="350"/></pattern><rect x="0" y="0" width="100%" height="100%" fill="url(#pattern_L1_97)"/></g><g fi:class="KUsePattern"><pattern id="pattern_L1_98" width="350" height="350" patternUnits="userSpaceOnUse"><use xlink:href="#L1_98" x="-350" y="-350"/><use xlink:href="#L1_98" x="0" y="-350"/><use xlink:href="#L1_98" x="350" y="-350"/><use xlink:href="#L1_98" x="-350" y="0"/><use xlink:href="#L1_98" x="0" y="0"/><use xlink:href="#L1_98" x="350" y="0"/><use xlink:href="#L1_98" x="-350" y="350"/><use xlink:href="#L1_98" x="0" y="350"/><use xlink:href="#L1_98" x="350" y="350"/></pattern><rect x="0" y="0" width="100%" height="100%" fill="url(#pattern_L1_98)"/></g><g fi:class="KUsePattern"><pattern id="pattern_L1_99" width="350" height="350" patternUnits="userSpaceOnUse"><use xlink:href="#L1_99" x="-350" y="-350"/><use xlink:href="#L1_99" x="0" y="-350"/><use xlink:href="#L1_99" x="350" y="-350"/><use xlink:href="#L1_99" x="-350" y="0"/><use xlink:href="#L1_99" x="0" y="0"/><use xlink:href="#L1_99" x="350" y="0"/><use xlink:href="#L1_99" x="-350" y="350"/><use xlink:href="#L1_99" x="0" y="350"/><use xlink:href="#L1_99" x="350" y="350"/></pattern><rect x="0" y="0" width="100%" height="100%" fill="url(#pattern_L1_99)"/></g><g fi:class="KUsePattern"><pattern id="pattern_L1_100" width="350" height="350" patternUnits="userSpaceOnUse"><use xlink:href="#L1_100" x="-350" y="-350"/><use xlink:href="#L1_100" x="0" y="-350"/><use xlink:href="#L1_100" x="350" y="-350"/><use xlink:href="#L1_100" x="-350" y="0"/><use xlink:href="#L1_100" x="0" y="0"/><use xlink:href="#L1_100" x="350" y="0"/><use xlink:href="#L1_100" x="-350" y="350"/><use xlink:href="#L1_100" x="0" y="350"/><use xlink:href="#L1_100" x="350" y="350"/></pattern><rect x="0" y="0" width="100%" height="100%" fill="url(#pattern_L1_100)"/></g><g fi:class="KUsePattern"><pattern id="pattern_L1_101" width="350" height="350" patternUnits="userSpaceOnUse"><use xlink:href="#L1_101" x="-350" y="-350"/><use xlink:href="#L1_101" x="0" y="-350"/><use xlink:href="#L1_101" x="350" y="-350"/><use xlink:href="#L1_101" x="-350" y="0"/><use xlink:href="#L1_101" x="0" y="0"/><use xlink:href="#L1_101" x="350" y="0"/><use xlink:href="#L1_101" x="-350" y="350"/><use xlink:href="#L1_101" x="0" y="350"/><use xlink:href="#L1_101" x="350" y="350"/></pattern><rect x="0" y="0" width="100%" height="100%" fill="url(#pattern_L1_101)"/></g><g fi:class="KUsePattern"><pattern id="pattern_L1_102" width="350" height="350" patternUnits="userSpaceOnUse"><use xlink:href="#L1_102" x="-350" y="-350"/><use xlink:href="#L1_102" x="0" y="-350"/><use xlink:href="#L1_102" x="350" y="-350"/><use xlink:href="#L1_102" x="-350" y="0"/><use xlink:href="#L1_102" x="0" y="0"/><use xlink:href="#L1_102" x="350" y="0"/><use xlink:href="#L1_102" x="-350" y="350"/><use xlink:href="#L1_102" x="0" y="350"/><use xlink:href="#L1_102" x="350" y="350"/></pattern><rect x="0" y="0" width="100%" height="100%" fill="url(#pattern_L1_102)"/></g><g fi:class="KUsePattern"><pattern id="pattern_L1_103" width="350" height="350" patternUnits="userSpaceOnUse"><use xlink:href="#L1_103" x="-350" y="-350"/><use xlink:href="#L1_103" x="0" y="-350"/><use xlink:href="#L1_103" x="350" y="-350"/><use xlink:href="#L1_103" x="-350" y="0"/><use xlink:href="#L1_103" x="0" y="0"/><use xlink:href="#L1_103" x="350" y="0"/><use xlink:href="#L1_103" x="-350" y="350"/><use xlink:href="#L1_103" x="0" y="350"/><use xlink:href="#L1_103" x="350" y="350"/></pattern><rect x="0" y="0" width="100%" height="100%" fill="url(#pattern_L1_103)"/></g><g fi:class="KUsePattern"><pattern id="pattern_L1_104" width="350" height="350" patternUnits="userSpaceOnUse"><use xlink:href="#L1_104" x="-350" y="-350"/><use xlink:href="#L1_104" x="0" y="-350"/><use xlink:href="#L1_104" x="350" y="-350"/><use xlink:href="#L1_104" x="-350" y="0"/><use xlink:href="#L1_104" x="0" y="0"/><use xlink:href="#L1_104" x="350" y="0"/><use xlink:href="#L1_104" x="-350" y="350"/><use xlink:href="#L1_104" x="0" y="350"/><use xlink:href="#L1_104" x="350" y="350"/></pattern><rect x="0" y="0" width="100%" height="100%" fill="url(#pattern_L1_104)"/></g><g fi:class="KUsePattern"><pattern id="pattern_L1_105" width="350" height="350" patternUnits="userSpaceOnUse"><use xlink:href="#L1_105" x="-350" y="-350"/><use xlink:href="#L1_105" x="0" y="-350"/><use xlink:href="#L1_105" x="350" y="-350"/><use xlink:href="#L1_105" x="-350" y="0"/><use xlink:href="#L1_105" x="0" y="0"/><use xlink:href="#L1_105" x="350" y="0"/><use xlink:href="#L1_105" x="-350" y="350"/><use xlink:href="#L1_105" x="0" y="350"/><use xlink:href="#L1_105" x="350" y="350"/></pattern><rect x="0" y="0" width="100%" height="100%" fill="url(#pattern_L1_105)"/></g></svg>